<svg width="12" height="9" viewBox="0 0 12 9" fill="none" xmlns="http://www.w3.org/2000/svg">
<path d="M3.23865 0.119315V8.84659H2.18183V1.22727H2.1307L1.38879e-05 2.64204V1.56818L2.18183 0.119315H3.23865ZM5.74859 8.84659V8.07954L8.62928 4.92613C8.96734 4.55682 9.24575 4.23579 9.4645 3.96307C9.68325 3.6875 9.84518 3.42897 9.9503 3.1875C10.0583 2.94318 10.1122 2.6875 10.1122 2.42045C10.1122 2.11363 10.0384 1.84801 9.89064 1.62358C9.74575 1.39914 9.54689 1.22585 9.29405 1.10369C9.04121 0.981531 8.75712 0.920452 8.44178 0.920452C8.10655 0.920452 7.81393 0.990054 7.56393 1.12926C7.31678 1.26562 7.12501 1.45738 6.98865 1.70454C6.85513 1.9517 6.78837 2.24147 6.78837 2.57386H5.78268C5.78268 2.0625 5.90058 1.61363 6.13638 1.22727C6.37217 0.840906 6.6932 0.539769 7.09945 0.32386C7.50854 0.107951 7.96734 -3.09944e-06 8.47587 -3.09944e-06C8.98723 -3.09944e-06 9.44035 0.107951 9.83524 0.32386C10.2301 0.539769 10.5398 0.830963 10.7642 1.19744C10.9887 1.56392 11.1009 1.97159 11.1009 2.42045C11.1009 2.74147 11.0426 3.05539 10.9262 3.36221C10.8125 3.66619 10.6137 4.00568 10.3296 4.38068C10.0483 4.75284 9.65768 5.20738 9.15768 5.74432L7.19746 7.84091V7.90909H11.2543V8.84659H5.74859Z" fill="black"/>
</svg>
