<svg width="12" height="9" viewBox="0 0 12 9" fill="none" xmlns="http://www.w3.org/2000/svg">
<path d="M3.23865 0.119315V8.84659H2.18183V1.22727H2.1307L1.38879e-05 2.64204V1.56818L2.18183 0.119315H3.23865ZM8.69746 8.96591C8.13496 8.96591 7.63354 8.86932 7.1932 8.67613C6.7557 8.48295 6.40768 8.21449 6.14916 7.87074C5.89348 7.52414 5.75428 7.12216 5.73155 6.66477H6.80541C6.82814 6.94602 6.92473 7.18892 7.09518 7.39346C7.26564 7.59517 7.48865 7.75142 7.76422 7.86221C8.03979 7.97301 8.34518 8.02841 8.68041 8.02841C9.05541 8.02841 9.3878 7.96307 9.67757 7.83238C9.96734 7.7017 10.1946 7.51988 10.3594 7.28693C10.5242 7.05397 10.6065 6.78409 10.6065 6.47727C10.6065 6.15625 10.527 5.87358 10.3679 5.62926C10.2088 5.3821 9.97587 5.18892 9.66905 5.04971C9.36223 4.91051 8.98723 4.84091 8.54405 4.84091H7.84518V3.90341H8.54405C8.89064 3.90341 9.19462 3.84091 9.45598 3.71591C9.72018 3.59091 9.92615 3.41477 10.0739 3.1875C10.2244 2.96022 10.2997 2.69318 10.2997 2.38636C10.2997 2.09091 10.2344 1.8338 10.1037 1.61505C9.97303 1.3963 9.78837 1.22585 9.54973 1.10369C9.31393 0.981531 9.03553 0.920452 8.7145 0.920452C8.41337 0.920452 8.12928 0.975849 7.86223 1.08664C7.59803 1.1946 7.38212 1.35227 7.2145 1.55966C7.04689 1.7642 6.95598 2.01136 6.94178 2.30113H5.91905C5.93609 1.84375 6.07388 1.44318 6.3324 1.09943C6.59092 0.752838 6.92899 0.482951 7.3466 0.28977C7.76706 0.0965879 8.22871 -3.09944e-06 8.73155 -3.09944e-06C9.27132 -3.09944e-06 9.73439 0.109372 10.1208 0.328122C10.5071 0.544031 10.804 0.829542 11.0114 1.18466C11.2188 1.53977 11.3225 1.92329 11.3225 2.33522C11.3225 2.8267 11.1932 3.24574 10.9347 3.59233C10.679 3.93892 10.331 4.17897 9.89064 4.3125V4.38068C10.4418 4.47159 10.8722 4.70596 11.1818 5.0838C11.4915 5.4588 11.6463 5.92329 11.6463 6.47727C11.6463 6.9517 11.5171 7.37784 11.2585 7.75568C11.0029 8.13068 10.6534 8.42613 10.2102 8.64204C9.76706 8.85795 9.2628 8.96591 8.69746 8.96591Z" fill="black"/>
</svg>
