<svg width="12" height="9" viewBox="0 0 12 9" fill="none" xmlns="http://www.w3.org/2000/svg">
<path d="M3.23865 6.67572e-06V8.72728H2.18183V1.10796H2.1307L1.38879e-05 2.52273V1.44887L2.18183 6.67572e-06H3.23865ZM8.47587 8.8466C7.97587 8.8466 7.52558 8.74717 7.12501 8.5483C6.72445 8.34944 6.40342 8.07671 6.16195 7.73012C5.92047 7.38353 5.78837 6.98864 5.76564 6.54546H6.78837C6.82814 6.94035 7.00712 7.26705 7.3253 7.52558C7.64632 7.78126 8.02984 7.9091 8.47587 7.9091C8.83382 7.9091 9.152 7.82529 9.43041 7.65768C9.71166 7.49006 9.93183 7.25995 10.0909 6.96734C10.2529 6.67188 10.3338 6.33808 10.3338 5.96592C10.3338 5.58523 10.25 5.24575 10.0824 4.94745C9.91763 4.64631 9.69036 4.4091 9.40058 4.2358C9.11081 4.06251 8.77984 3.97444 8.40768 3.9716C8.14064 3.96876 7.86649 4.00995 7.58524 4.09518C7.30399 4.17756 7.07246 4.2841 6.89064 4.41478L5.902 4.29546L6.43041 6.67572e-06H10.9645V0.937507H7.31678L7.00996 3.51137H7.06109C7.24007 3.36933 7.4645 3.25143 7.73439 3.15768C8.00428 3.06393 8.28553 3.01705 8.57814 3.01705C9.11223 3.01705 9.58808 3.14489 10.0057 3.40057C10.4262 3.65342 10.7557 4.00001 10.9943 4.44035C11.2358 4.88069 11.3565 5.38353 11.3565 5.94887C11.3565 6.50569 11.2315 7.00285 10.9815 7.44035C10.7344 7.87501 10.3935 8.21876 9.95882 8.4716C9.52416 8.7216 9.02984 8.8466 8.47587 8.8466Z" fill="black"/>
</svg>
