<svg width="12" height="9" viewBox="0 0 12 9" fill="none" xmlns="http://www.w3.org/2000/svg">
<path d="M3.23863 0.119315V8.84659H2.18182V1.22727H2.13068L-1.37091e-06 2.64204V1.56818L2.18182 0.119315H3.23863ZM8.64631 8.96591C8.28835 8.96022 7.9304 8.89204 7.57244 8.76136C7.21449 8.63068 6.88778 8.41051 6.59233 8.10085C6.29687 7.78835 6.05966 7.36647 5.88068 6.83522C5.7017 6.30113 5.61221 5.63068 5.61221 4.82386C5.61221 4.05113 5.68466 3.36647 5.82954 2.76988C5.97443 2.17045 6.18466 1.66619 6.46023 1.2571C6.73579 0.845168 7.06818 0.532667 7.45739 0.319599C7.84943 0.106531 8.29119 -3.09944e-06 8.78267 -3.09944e-06C9.27131 -3.09944e-06 9.70596 0.0980084 10.0866 0.294031C10.4702 0.487213 10.7827 0.757099 11.0241 1.10369C11.2656 1.45028 11.4219 1.84943 11.4929 2.30113H10.4531C10.3565 1.90909 10.169 1.5838 9.89062 1.32528C9.61221 1.06676 9.2429 0.937497 8.78267 0.937497C8.10653 0.937497 7.57386 1.23153 7.18466 1.8196C6.79829 2.40767 6.60369 3.23295 6.60085 4.29545H6.66903C6.82812 4.05397 7.01704 3.84801 7.23579 3.67755C7.45739 3.50426 7.7017 3.37074 7.96875 3.27699C8.23579 3.18324 8.51846 3.13636 8.81676 3.13636C9.31676 3.13636 9.77415 3.26136 10.1889 3.51136C10.6037 3.75852 10.9361 4.10085 11.1861 4.53835C11.4361 4.97301 11.5611 5.47159 11.5611 6.03409C11.5611 6.57386 11.4403 7.06818 11.1989 7.51704C10.9574 7.96307 10.6179 8.31818 10.1804 8.58238C9.74574 8.84375 9.23437 8.97159 8.64631 8.96591ZM8.64631 8.02841C9.00426 8.02841 9.32528 7.93892 9.60937 7.75994C9.89631 7.58096 10.1222 7.34091 10.2869 7.03977C10.4545 6.73863 10.5384 6.40341 10.5384 6.03409C10.5384 5.67329 10.4574 5.34517 10.2955 5.04971C10.1364 4.75142 9.91619 4.5142 9.63494 4.33807C9.35653 4.16193 9.03835 4.07386 8.6804 4.07386C8.41051 4.07386 8.15909 4.12784 7.92613 4.23579C7.69318 4.34091 7.48864 4.48579 7.3125 4.67045C7.1392 4.85511 7.00284 5.06676 6.90341 5.30539C6.80398 5.54119 6.75426 5.78977 6.75426 6.05113C6.75426 6.39772 6.83523 6.72159 6.99716 7.02272C7.16193 7.32386 7.38636 7.56676 7.67045 7.75142C7.95738 7.93608 8.28267 8.02841 8.64631 8.02841Z" fill="black"/>
</svg>
