<svg width="12" height="9" viewBox="0 0 12 9" fill="none" xmlns="http://www.w3.org/2000/svg">
<path d="M3.23863 0.119315V8.84659H2.18182V1.22727H2.13068L-1.37091e-06 2.64204V1.56818L2.18182 0.119315H3.23863ZM8.54403 8.96591C7.95881 8.96591 7.44176 8.86221 6.9929 8.65483C6.54687 8.4446 6.19886 8.15625 5.94886 7.78977C5.69886 7.42045 5.57528 7 5.57812 6.52841C5.57528 6.15909 5.64773 5.81818 5.79545 5.50568C5.94318 5.19034 6.14489 4.92755 6.40057 4.71733C6.65909 4.50426 6.94744 4.36932 7.26562 4.3125V4.26136C6.84801 4.15341 6.51562 3.91903 6.26846 3.55824C6.02131 3.1946 5.89915 2.78125 5.90199 2.31818C5.89915 1.875 6.01136 1.47869 6.23864 1.12926C6.46591 0.779826 6.77841 0.504258 7.17614 0.302554C7.5767 0.100849 8.03267 -3.09944e-06 8.54403 -3.09944e-06C9.04971 -3.09944e-06 9.50142 0.100849 9.89915 0.302554C10.2969 0.504258 10.6094 0.779826 10.8366 1.12926C11.0668 1.47869 11.1832 1.875 11.1861 2.31818C11.1832 2.78125 11.0568 3.1946 10.8068 3.55824C10.5597 3.91903 10.2315 4.15341 9.82244 4.26136V4.3125C10.1378 4.36932 10.4219 4.50426 10.6747 4.71733C10.9276 4.92755 11.1293 5.19034 11.2798 5.50568C11.4304 5.81818 11.5071 6.15909 11.5099 6.52841C11.5071 7 11.3793 7.42045 11.1264 7.78977C10.8764 8.15625 10.5284 8.4446 10.0824 8.65483C9.6392 8.86221 9.12642 8.96591 8.54403 8.96591ZM8.54403 8.02841C8.93892 8.02841 9.27983 7.96449 9.56676 7.83664C9.85369 7.7088 10.0753 7.52841 10.2315 7.29545C10.3878 7.0625 10.4673 6.78977 10.4702 6.47727C10.4673 6.14772 10.3821 5.85653 10.2145 5.60369C10.0469 5.35085 9.81818 5.15199 9.52841 5.0071C9.24148 4.86221 8.91335 4.78977 8.54403 4.78977C8.17187 4.78977 7.83949 4.86221 7.54687 5.0071C7.2571 5.15199 7.02841 5.35085 6.86079 5.60369C6.69602 5.85653 6.61506 6.14772 6.6179 6.47727C6.61506 6.78977 6.69034 7.0625 6.84375 7.29545C7 7.52841 7.22301 7.7088 7.51278 7.83664C7.80256 7.96449 8.14631 8.02841 8.54403 8.02841ZM8.54403 3.88636C8.85653 3.88636 9.13352 3.82386 9.375 3.69886C9.61932 3.57386 9.81108 3.39914 9.95028 3.17471C10.0895 2.95028 10.1605 2.6875 10.1634 2.38636C10.1605 2.09091 10.0909 1.8338 9.95454 1.61505C9.81818 1.39346 9.62926 1.22301 9.38778 1.10369C9.14631 0.981531 8.86506 0.920452 8.54403 0.920452C8.21733 0.920452 7.93182 0.981531 7.6875 1.10369C7.44318 1.22301 7.25426 1.39346 7.12074 1.61505C6.98721 1.8338 6.92187 2.09091 6.92471 2.38636C6.92187 2.6875 6.98864 2.95028 7.125 3.17471C7.2642 3.39914 7.45596 3.57386 7.70028 3.69886C7.9446 3.82386 8.22585 3.88636 8.54403 3.88636Z" fill="black"/>
</svg>
