<svg width="14" height="9" viewBox="0 0 14 9" fill="none" xmlns="http://www.w3.org/2000/svg">
<path d="M2.77758e-05 8.84659V8.07954L2.88071 4.92613C3.21878 4.55682 3.49719 4.23579 3.71594 3.96307C3.93469 3.6875 4.09662 3.42897 4.20173 3.1875C4.30969 2.94318 4.36366 2.6875 4.36366 2.42045C4.36366 2.11363 4.2898 1.84801 4.14207 1.62358C3.99719 1.39914 3.79832 1.22585 3.54548 1.10369C3.29264 0.981531 3.00855 0.920452 2.69321 0.920452C2.35798 0.920452 2.06537 0.990054 1.81537 1.12926C1.56821 1.26562 1.37645 1.45738 1.24008 1.70454C1.10656 1.9517 1.0398 2.24147 1.0398 2.57386H0.0341187C0.0341187 2.0625 0.152016 1.61363 0.387812 1.22727C0.623607 0.840906 0.94463 0.539769 1.35088 0.32386C1.75997 0.107951 2.21878 -3.09944e-06 2.7273 -3.09944e-06C3.23866 -3.09944e-06 3.69179 0.107951 4.08668 0.32386C4.48156 0.539769 4.79122 0.830963 5.01565 1.19744C5.24008 1.56392 5.3523 1.97159 5.3523 2.42045C5.3523 2.74147 5.29406 3.05539 5.17758 3.36221C5.06395 3.66619 4.86508 4.00568 4.58099 4.38068C4.29974 4.75284 3.90912 5.20738 3.40912 5.74432L1.44889 7.84091V7.90909H5.50571V8.84659H2.77758e-05ZM10.2145 8.96591C9.65202 8.96591 9.1506 8.86932 8.71026 8.67613C8.27276 8.48295 7.92474 8.21449 7.66622 7.87074C7.41054 7.52414 7.27133 7.12216 7.24861 6.66477H8.32247C8.3452 6.94602 8.44179 7.18892 8.61224 7.39346C8.7827 7.59517 9.00571 7.75142 9.28128 7.86221C9.55685 7.97301 9.86224 8.02841 10.1975 8.02841C10.5725 8.02841 10.9049 7.96307 11.1946 7.83238C11.4844 7.7017 11.7117 7.51988 11.8764 7.28693C12.0412 7.05397 12.1236 6.78409 12.1236 6.47727C12.1236 6.15625 12.0441 5.87358 11.885 5.62926C11.7259 5.3821 11.4929 5.18892 11.1861 5.04971C10.8793 4.91051 10.5043 4.84091 10.0611 4.84091H9.36224V3.90341H10.0611C10.4077 3.90341 10.7117 3.84091 10.973 3.71591C11.2372 3.59091 11.4432 3.41477 11.5909 3.1875C11.7415 2.96022 11.8168 2.69318 11.8168 2.38636C11.8168 2.09091 11.7514 1.8338 11.6208 1.61505C11.4901 1.3963 11.3054 1.22585 11.0668 1.10369C10.831 0.981531 10.5526 0.920452 10.2316 0.920452C9.93043 0.920452 9.64633 0.975849 9.37929 1.08664C9.11508 1.1946 8.89918 1.35227 8.73156 1.55966C8.56395 1.7642 8.47304 2.01136 8.45883 2.30113H7.43611C7.45315 1.84375 7.59094 1.44318 7.84946 1.09943C8.10798 0.752838 8.44605 0.482951 8.86366 0.28977C9.28412 0.0965879 9.74577 -3.09944e-06 10.2486 -3.09944e-06C10.7884 -3.09944e-06 11.2514 0.109372 11.6378 0.328122C12.0242 0.544031 12.3211 0.829542 12.5284 1.18466C12.7358 1.53977 12.8395 1.92329 12.8395 2.33522C12.8395 2.8267 12.7103 3.24574 12.4517 3.59233C12.1961 3.93892 11.848 4.17897 11.4077 4.3125V4.38068C11.9588 4.47159 12.3892 4.70596 12.6989 5.0838C13.0086 5.4588 13.1634 5.92329 13.1634 6.47727C13.1634 6.9517 13.0341 7.37784 12.7756 7.75568C12.5199 8.13068 12.1705 8.42613 11.7273 8.64204C11.2841 8.85795 10.7799 8.96591 10.2145 8.96591Z" fill="black"/>
</svg>
