<svg width="14" height="9" viewBox="0 0 14 9" fill="none" xmlns="http://www.w3.org/2000/svg">
<path d="M2.77758e-05 8.84659V8.07954L2.88071 4.92613C3.21878 4.55682 3.49719 4.23579 3.71594 3.96307C3.93469 3.6875 4.09662 3.42897 4.20173 3.1875C4.30969 2.94318 4.36366 2.6875 4.36366 2.42045C4.36366 2.11363 4.2898 1.84801 4.14207 1.62358C3.99719 1.39914 3.79832 1.22585 3.54548 1.10369C3.29264 0.981531 3.00855 0.920452 2.69321 0.920452C2.35798 0.920452 2.06537 0.990054 1.81537 1.12926C1.56821 1.26562 1.37645 1.45738 1.24008 1.70454C1.10656 1.9517 1.0398 2.24147 1.0398 2.57386H0.0341187C0.0341187 2.0625 0.152016 1.61363 0.387812 1.22727C0.623607 0.840906 0.94463 0.539769 1.35088 0.32386C1.75997 0.107951 2.21878 -3.09944e-06 2.7273 -3.09944e-06C3.23866 -3.09944e-06 3.69179 0.107951 4.08668 0.32386C4.48156 0.539769 4.79122 0.830963 5.01565 1.19744C5.24008 1.56392 5.3523 1.97159 5.3523 2.42045C5.3523 2.74147 5.29406 3.05539 5.17758 3.36221C5.06395 3.66619 4.86508 4.00568 4.58099 4.38068C4.29974 4.75284 3.90912 5.20738 3.40912 5.74432L1.44889 7.84091V7.90909H5.50571V8.84659H2.77758e-05ZM6.87361 7.05682V6.1875L10.7088 0.119315H11.3395V1.46591H10.9134L8.01565 6.05113V6.11932H13.1804V7.05682H6.87361ZM10.9816 8.84659V6.79261V6.38778V0.119315H11.9872V8.84659H10.9816Z" fill="black"/>
</svg>
