<svg width="13" height="9" viewBox="0 0 13 9" fill="none" xmlns="http://www.w3.org/2000/svg">
<path d="M2.77758e-05 8.84659V8.07954L2.88071 4.92613C3.21878 4.55682 3.49719 4.23579 3.71594 3.96307C3.93469 3.6875 4.09662 3.42897 4.20173 3.1875C4.30969 2.94318 4.36366 2.6875 4.36366 2.42045C4.36366 2.11363 4.2898 1.84801 4.14207 1.62358C3.99719 1.39914 3.79832 1.22585 3.54548 1.10369C3.29264 0.981531 3.00855 0.920452 2.69321 0.920452C2.35798 0.920452 2.06537 0.990054 1.81537 1.12926C1.56821 1.26562 1.37645 1.45738 1.24008 1.70454C1.10656 1.9517 1.0398 2.24147 1.0398 2.57386H0.0341187C0.0341187 2.0625 0.152016 1.61363 0.387812 1.22727C0.623607 0.840906 0.94463 0.539769 1.35088 0.32386C1.75997 0.107951 2.21878 -3.09944e-06 2.7273 -3.09944e-06C3.23866 -3.09944e-06 3.69179 0.107951 4.08668 0.32386C4.48156 0.539769 4.79122 0.830963 5.01565 1.19744C5.24008 1.56392 5.3523 1.97159 5.3523 2.42045C5.3523 2.74147 5.29406 3.05539 5.17758 3.36221C5.06395 3.66619 4.86508 4.00568 4.58099 4.38068C4.29974 4.75284 3.90912 5.20738 3.40912 5.74432L1.44889 7.84091V7.90909H5.50571V8.84659H2.77758e-05ZM9.99293 8.96591C9.49293 8.96591 9.04264 8.86647 8.64207 8.66761C8.24151 8.46875 7.92048 8.19602 7.67901 7.84943C7.43753 7.50284 7.30543 7.10795 7.2827 6.66477H8.30543C8.3452 7.05966 8.52418 7.38636 8.84236 7.64488C9.16338 7.90057 9.5469 8.02841 9.99293 8.02841C10.3509 8.02841 10.6691 7.9446 10.9475 7.77699C11.2287 7.60937 11.4489 7.37926 11.608 7.08664C11.7699 6.79119 11.8509 6.45738 11.8509 6.08522C11.8509 5.70454 11.7671 5.36505 11.5995 5.06676C11.4347 4.76562 11.2074 4.52841 10.9176 4.35511C10.6279 4.18182 10.2969 4.09375 9.92474 4.09091C9.6577 4.08807 9.38355 4.12926 9.1023 4.21449C8.82105 4.29687 8.58952 4.40341 8.4077 4.53409L7.41906 4.41477L7.94747 0.119315H12.4816V1.05682H8.83383L8.52702 3.63068H8.57815C8.75713 3.48863 8.98156 3.37074 9.25145 3.27699C9.52133 3.18324 9.80258 3.13636 10.0952 3.13636C10.6293 3.13636 11.1051 3.2642 11.5228 3.51988C11.9432 3.77272 12.2728 4.11932 12.5114 4.55966C12.7529 5 12.8736 5.50284 12.8736 6.06818C12.8736 6.625 12.7486 7.12216 12.4986 7.55966C12.2514 7.99432 11.9105 8.33807 11.4759 8.59091C11.0412 8.84091 10.5469 8.96591 9.99293 8.96591Z" fill="black"/>
</svg>
