<svg width="14" height="9" viewBox="0 0 14 9" fill="none" xmlns="http://www.w3.org/2000/svg">
<path d="M2.77758e-05 8.84659V8.07954L2.88071 4.92613C3.21878 4.55682 3.49719 4.23579 3.71594 3.96307C3.93469 3.6875 4.09662 3.42897 4.20173 3.1875C4.30969 2.94318 4.36366 2.6875 4.36366 2.42045C4.36366 2.11363 4.2898 1.84801 4.14207 1.62358C3.99719 1.39914 3.79832 1.22585 3.54548 1.10369C3.29264 0.981531 3.00855 0.920452 2.69321 0.920452C2.35798 0.920452 2.06537 0.990054 1.81537 1.12926C1.56821 1.26562 1.37645 1.45738 1.24008 1.70454C1.10656 1.9517 1.0398 2.24147 1.0398 2.57386H0.0341187C0.0341187 2.0625 0.152016 1.61363 0.387812 1.22727C0.623607 0.840906 0.94463 0.539769 1.35088 0.32386C1.75997 0.107951 2.21878 -3.09944e-06 2.7273 -3.09944e-06C3.23866 -3.09944e-06 3.69179 0.107951 4.08668 0.32386C4.48156 0.539769 4.79122 0.830963 5.01565 1.19744C5.24008 1.56392 5.3523 1.97159 5.3523 2.42045C5.3523 2.74147 5.29406 3.05539 5.17758 3.36221C5.06395 3.66619 4.86508 4.00568 4.58099 4.38068C4.29974 4.75284 3.90912 5.20738 3.40912 5.74432L1.44889 7.84091V7.90909H5.50571V8.84659H2.77758e-05ZM10.1634 8.96591C9.80543 8.96022 9.44747 8.89204 9.08952 8.76136C8.73156 8.63068 8.40486 8.41051 8.1094 8.10085C7.81395 7.78835 7.57673 7.36647 7.39776 6.83522C7.21878 6.30113 7.12929 5.63068 7.12929 4.82386C7.12929 4.05113 7.20173 3.36647 7.34662 2.76988C7.49151 2.17045 7.70173 1.66619 7.9773 1.2571C8.25287 0.845168 8.58526 0.532667 8.97446 0.319599C9.36651 0.106531 9.80827 -3.09944e-06 10.2997 -3.09944e-06C10.7884 -3.09944e-06 11.223 0.0980084 11.6037 0.294031C11.9872 0.487213 12.2997 0.757099 12.5412 1.10369C12.7827 1.45028 12.9389 1.84943 13.01 2.30113H11.9702C11.8736 1.90909 11.6861 1.5838 11.4077 1.32528C11.1293 1.06676 10.76 0.937497 10.2997 0.937497C9.62361 0.937497 9.09094 1.23153 8.70173 1.8196C8.31537 2.40767 8.12077 3.23295 8.11793 4.29545H8.18611C8.3452 4.05397 8.53412 3.84801 8.75287 3.67755C8.97446 3.50426 9.21878 3.37074 9.48582 3.27699C9.75287 3.18324 10.0355 3.13636 10.3338 3.13636C10.8338 3.13636 11.2912 3.26136 11.706 3.51136C12.1208 3.75852 12.4532 4.10085 12.7032 4.53835C12.9532 4.97301 13.0782 5.47159 13.0782 6.03409C13.0782 6.57386 12.9574 7.06818 12.7159 7.51704C12.4745 7.96307 12.135 8.31818 11.6975 8.58238C11.2628 8.84375 10.7514 8.97159 10.1634 8.96591ZM10.1634 8.02841C10.5213 8.02841 10.8424 7.93892 11.1264 7.75994C11.4134 7.58096 11.6392 7.34091 11.804 7.03977C11.9716 6.73863 12.0554 6.40341 12.0554 6.03409C12.0554 5.67329 11.9745 5.34517 11.8125 5.04971C11.6534 4.75142 11.4333 4.5142 11.152 4.33807C10.8736 4.16193 10.5554 4.07386 10.1975 4.07386C9.92758 4.07386 9.67616 4.12784 9.44321 4.23579C9.21026 4.34091 9.00571 4.48579 8.82957 4.67045C8.65628 4.85511 8.51991 5.06676 8.42048 5.30539C8.32105 5.54119 8.27133 5.78977 8.27133 6.05113C8.27133 6.39772 8.3523 6.72159 8.51423 7.02272C8.67901 7.32386 8.90344 7.56676 9.18753 7.75142C9.47446 7.93608 9.79974 8.02841 10.1634 8.02841Z" fill="black"/>
</svg>
