<svg width="14" height="9" viewBox="0 0 14 9" fill="none" xmlns="http://www.w3.org/2000/svg">
<path d="M2.77758e-05 8.84659V8.07954L2.88071 4.92613C3.21878 4.55682 3.49719 4.23579 3.71594 3.96307C3.93469 3.6875 4.09662 3.42897 4.20173 3.1875C4.30969 2.94318 4.36366 2.6875 4.36366 2.42045C4.36366 2.11363 4.2898 1.84801 4.14207 1.62358C3.99719 1.39914 3.79832 1.22585 3.54548 1.10369C3.29264 0.981531 3.00855 0.920452 2.69321 0.920452C2.35798 0.920452 2.06537 0.990054 1.81537 1.12926C1.56821 1.26562 1.37645 1.45738 1.24008 1.70454C1.10656 1.9517 1.0398 2.24147 1.0398 2.57386H0.0341187C0.0341187 2.0625 0.152016 1.61363 0.387812 1.22727C0.623607 0.840906 0.94463 0.539769 1.35088 0.32386C1.75997 0.107951 2.21878 -3.09944e-06 2.7273 -3.09944e-06C3.23866 -3.09944e-06 3.69179 0.107951 4.08668 0.32386C4.48156 0.539769 4.79122 0.830963 5.01565 1.19744C5.24008 1.56392 5.3523 1.97159 5.3523 2.42045C5.3523 2.74147 5.29406 3.05539 5.17758 3.36221C5.06395 3.66619 4.86508 4.00568 4.58099 4.38068C4.29974 4.75284 3.90912 5.20738 3.40912 5.74432L1.44889 7.84091V7.90909H5.50571V8.84659H2.77758e-05ZM10.0611 8.96591C9.47588 8.96591 8.95883 8.86221 8.50997 8.65483C8.06395 8.4446 7.71594 8.15625 7.46594 7.78977C7.21594 7.42045 7.09236 7 7.0952 6.52841C7.09236 6.15909 7.1648 5.81818 7.31253 5.50568C7.46026 5.19034 7.66196 4.92755 7.91764 4.71733C8.17616 4.50426 8.46452 4.36932 8.7827 4.3125V4.26136C8.36508 4.15341 8.0327 3.91903 7.78554 3.55824C7.53838 3.1946 7.41622 2.78125 7.41906 2.31818C7.41622 1.875 7.52844 1.47869 7.75571 1.12926C7.98298 0.779826 8.29548 0.504258 8.69321 0.302554C9.09378 0.100849 9.54974 -3.09944e-06 10.0611 -3.09944e-06C10.5668 -3.09944e-06 11.0185 0.100849 11.4162 0.302554C11.8139 0.504258 12.1264 0.779826 12.3537 1.12926C12.5838 1.47869 12.7003 1.875 12.7032 2.31818C12.7003 2.78125 12.5739 3.1946 12.3239 3.55824C12.0767 3.91903 11.7486 4.15341 11.3395 4.26136V4.3125C11.6549 4.36932 11.9389 4.50426 12.1918 4.71733C12.4446 4.92755 12.6463 5.19034 12.7969 5.50568C12.9475 5.81818 13.0242 6.15909 13.027 6.52841C13.0242 7 12.8963 7.42045 12.6435 7.78977C12.3935 8.15625 12.0455 8.4446 11.5995 8.65483C11.1563 8.86221 10.6435 8.96591 10.0611 8.96591ZM10.0611 8.02841C10.456 8.02841 10.7969 7.96449 11.0838 7.83664C11.3708 7.7088 11.5924 7.52841 11.7486 7.29545C11.9049 7.0625 11.9844 6.78977 11.9872 6.47727C11.9844 6.14772 11.8992 5.85653 11.7316 5.60369C11.5639 5.35085 11.3353 5.15199 11.0455 5.0071C10.7586 4.86221 10.4304 4.78977 10.0611 4.78977C9.68895 4.78977 9.35656 4.86221 9.06395 5.0071C8.77418 5.15199 8.54548 5.35085 8.37787 5.60369C8.2131 5.85653 8.13213 6.14772 8.13497 6.47727C8.13213 6.78977 8.20741 7.0625 8.36082 7.29545C8.51707 7.52841 8.74008 7.7088 9.02986 7.83664C9.31963 7.96449 9.66338 8.02841 10.0611 8.02841ZM10.0611 3.88636C10.3736 3.88636 10.6506 3.82386 10.8921 3.69886C11.1364 3.57386 11.3282 3.39914 11.4674 3.17471C11.6066 2.95028 11.6776 2.6875 11.6804 2.38636C11.6776 2.09091 11.608 1.8338 11.4716 1.61505C11.3353 1.39346 11.1463 1.22301 10.9049 1.10369C10.6634 0.981531 10.3821 0.920452 10.0611 0.920452C9.7344 0.920452 9.44889 0.981531 9.20457 1.10369C8.96026 1.22301 8.77133 1.39346 8.63781 1.61505C8.50429 1.8338 8.43895 2.09091 8.44179 2.38636C8.43895 2.6875 8.50571 2.95028 8.64207 3.17471C8.78128 3.39914 8.97304 3.57386 9.21736 3.69886C9.46168 3.82386 9.74293 3.88636 10.0611 3.88636Z" fill="black"/>
</svg>
