<svg width="14" height="9" viewBox="0 0 14 9" fill="none" xmlns="http://www.w3.org/2000/svg">
<path d="M2.96592 8.96591C2.40342 8.96591 1.902 8.86932 1.46166 8.67613C1.02416 8.48295 0.676148 8.21449 0.417625 7.87074C0.161943 7.52414 0.0227384 7.12216 1.11461e-05 6.66477H1.07387C1.0966 6.94602 1.19319 7.18892 1.36365 7.39346C1.5341 7.59517 1.75711 7.75142 2.03268 7.86221C2.30825 7.97301 2.61365 8.02841 2.94887 8.02841C3.32387 8.02841 3.65626 7.96307 3.94603 7.83238C4.23581 7.7017 4.46308 7.51988 4.62785 7.28693C4.79262 7.05397 4.87501 6.78409 4.87501 6.47727C4.87501 6.15625 4.79547 5.87358 4.63637 5.62926C4.47728 5.3821 4.24433 5.18892 3.93751 5.04971C3.63069 4.91051 3.25569 4.84091 2.81251 4.84091H2.11365V3.90341H2.81251C3.1591 3.90341 3.46308 3.84091 3.72444 3.71591C3.98865 3.59091 4.19461 3.41477 4.34234 3.1875C4.49291 2.96022 4.56819 2.69318 4.56819 2.38636C4.56819 2.09091 4.50285 1.8338 4.37217 1.61505C4.24149 1.3963 4.05683 1.22585 3.81819 1.10369C3.5824 0.981531 3.30399 0.920452 2.98297 0.920452C2.68183 0.920452 2.39774 0.975849 2.13069 1.08664C1.86649 1.1946 1.65058 1.35227 1.48297 1.55966C1.31535 1.7642 1.22444 2.01136 1.21024 2.30113H0.187511C0.204557 1.84375 0.342341 1.44318 0.600863 1.09943C0.859386 0.752838 1.19745 0.482951 1.61507 0.28977C2.03552 0.0965879 2.49717 -3.09944e-06 3.00001 -3.09944e-06C3.53978 -3.09944e-06 4.00285 0.109372 4.38922 0.328122C4.77558 0.544031 5.07245 0.829542 5.27984 1.18466C5.48723 1.53977 5.59092 1.92329 5.59092 2.33522C5.59092 2.8267 5.46166 3.24574 5.20314 3.59233C4.94745 3.93892 4.59944 4.17897 4.1591 4.3125V4.38068C4.71024 4.47159 5.14064 4.70596 5.4503 5.0838C5.75995 5.4588 5.91478 5.92329 5.91478 6.47727C5.91478 6.9517 5.78552 7.37784 5.527 7.75568C5.27132 8.13068 4.92189 8.42613 4.4787 8.64204C4.03552 8.85795 3.53126 8.96591 2.96592 8.96591ZM7.65768 8.84659V8.07954L10.5384 4.92613C10.8764 4.55682 11.1548 4.23579 11.3736 3.96307C11.5923 3.6875 11.7543 3.42897 11.8594 3.1875C11.9673 2.94318 12.0213 2.6875 12.0213 2.42045C12.0213 2.11363 11.9475 1.84801 11.7997 1.62358C11.6548 1.39914 11.456 1.22585 11.2031 1.10369C10.9503 0.981531 10.6662 0.920452 10.3509 0.920452C10.0156 0.920452 9.72302 0.990054 9.47302 1.12926C9.22586 1.26562 9.0341 1.45738 8.89774 1.70454C8.76422 1.9517 8.69745 2.24147 8.69745 2.57386H7.69177C7.69177 2.0625 7.80967 1.61363 8.04547 1.22727C8.28126 0.840906 8.60228 0.539769 9.00853 0.32386C9.41762 0.107951 9.87643 -3.09944e-06 10.385 -3.09944e-06C10.8963 -3.09944e-06 11.3494 0.107951 11.7443 0.32386C12.1392 0.539769 12.4489 0.830963 12.6733 1.19744C12.8977 1.56392 13.01 1.97159 13.01 2.42045C13.01 2.74147 12.9517 3.05539 12.8352 3.36221C12.7216 3.66619 12.5227 4.00568 12.2386 4.38068C11.9574 4.75284 11.5668 5.20738 11.0668 5.74432L9.10655 7.84091V7.90909H13.1634V8.84659H7.65768Z" fill="black"/>
</svg>
