<svg width="14" height="9" viewBox="0 0 14 9" fill="none" xmlns="http://www.w3.org/2000/svg">
<path d="M2.96592 8.96591C2.40342 8.96591 1.902 8.86932 1.46166 8.67613C1.02416 8.48295 0.676148 8.21449 0.417625 7.87074C0.161943 7.52414 0.0227384 7.12216 1.11461e-05 6.66477H1.07387C1.0966 6.94602 1.19319 7.18892 1.36365 7.39346C1.5341 7.59517 1.75711 7.75142 2.03268 7.86221C2.30825 7.97301 2.61365 8.02841 2.94887 8.02841C3.32387 8.02841 3.65626 7.96307 3.94603 7.83238C4.23581 7.7017 4.46308 7.51988 4.62785 7.28693C4.79262 7.05397 4.87501 6.78409 4.87501 6.47727C4.87501 6.15625 4.79547 5.87358 4.63637 5.62926C4.47728 5.3821 4.24433 5.18892 3.93751 5.04971C3.63069 4.91051 3.25569 4.84091 2.81251 4.84091H2.11365V3.90341H2.81251C3.1591 3.90341 3.46308 3.84091 3.72444 3.71591C3.98865 3.59091 4.19461 3.41477 4.34234 3.1875C4.49291 2.96022 4.56819 2.69318 4.56819 2.38636C4.56819 2.09091 4.50285 1.8338 4.37217 1.61505C4.24149 1.3963 4.05683 1.22585 3.81819 1.10369C3.5824 0.981531 3.30399 0.920452 2.98297 0.920452C2.68183 0.920452 2.39774 0.975849 2.13069 1.08664C1.86649 1.1946 1.65058 1.35227 1.48297 1.55966C1.31535 1.7642 1.22444 2.01136 1.21024 2.30113H0.187511C0.204557 1.84375 0.342341 1.44318 0.600863 1.09943C0.859386 0.752838 1.19745 0.482951 1.61507 0.28977C2.03552 0.0965879 2.49717 -3.09944e-06 3.00001 -3.09944e-06C3.53978 -3.09944e-06 4.00285 0.109372 4.38922 0.328122C4.77558 0.544031 5.07245 0.829542 5.27984 1.18466C5.48723 1.53977 5.59092 1.92329 5.59092 2.33522C5.59092 2.8267 5.46166 3.24574 5.20314 3.59233C4.94745 3.93892 4.59944 4.17897 4.1591 4.3125V4.38068C4.71024 4.47159 5.14064 4.70596 5.4503 5.0838C5.75995 5.4588 5.91478 5.92329 5.91478 6.47727C5.91478 6.9517 5.78552 7.37784 5.527 7.75568C5.27132 8.13068 4.92189 8.42613 4.4787 8.64204C4.03552 8.85795 3.53126 8.96591 2.96592 8.96591ZM10.6065 8.96591C10.044 8.96591 9.54262 8.86932 9.10228 8.67613C8.66478 8.48295 8.31677 8.21449 8.05825 7.87074C7.80257 7.52414 7.66336 7.12216 7.64064 6.66477H8.7145C8.73723 6.94602 8.83382 7.18892 9.00427 7.39346C9.17473 7.59517 9.39774 7.75142 9.67331 7.86221C9.94887 7.97301 10.2543 8.02841 10.5895 8.02841C10.9645 8.02841 11.2969 7.96307 11.5867 7.83238C11.8764 7.7017 12.1037 7.51988 12.2685 7.28693C12.4332 7.05397 12.5156 6.78409 12.5156 6.47727C12.5156 6.15625 12.4361 5.87358 12.277 5.62926C12.1179 5.3821 11.885 5.18892 11.5781 5.04971C11.2713 4.91051 10.8963 4.84091 10.4531 4.84091H9.75427V3.90341H10.4531C10.7997 3.90341 11.1037 3.84091 11.3651 3.71591C11.6293 3.59091 11.8352 3.41477 11.983 3.1875C12.1335 2.96022 12.2088 2.69318 12.2088 2.38636C12.2088 2.09091 12.1435 1.8338 12.0128 1.61505C11.8821 1.3963 11.6975 1.22585 11.4588 1.10369C11.223 0.981531 10.9446 0.920452 10.6236 0.920452C10.3225 0.920452 10.0384 0.975849 9.77132 1.08664C9.50711 1.1946 9.2912 1.35227 9.12359 1.55966C8.95598 1.7642 8.86507 2.01136 8.85086 2.30113H7.82814C7.84518 1.84375 7.98297 1.44318 8.24149 1.09943C8.50001 0.752838 8.83808 0.482951 9.25569 0.28977C9.67615 0.0965879 10.1378 -3.09944e-06 10.6406 -3.09944e-06C11.1804 -3.09944e-06 11.6435 0.109372 12.0298 0.328122C12.4162 0.544031 12.7131 0.829542 12.9205 1.18466C13.1279 1.53977 13.2315 1.92329 13.2315 2.33522C13.2315 2.8267 13.1023 3.24574 12.8438 3.59233C12.5881 3.93892 12.2401 4.17897 11.7997 4.3125V4.38068C12.3509 4.47159 12.7813 4.70596 13.0909 5.0838C13.4006 5.4588 13.5554 5.92329 13.5554 6.47727C13.5554 6.9517 13.4261 7.37784 13.1676 7.75568C12.9119 8.13068 12.5625 8.42613 12.1193 8.64204C11.6761 8.85795 11.1719 8.96591 10.6065 8.96591Z" fill="black"/>
</svg>
