<svg width="14" height="9" viewBox="0 0 14 9" fill="none" xmlns="http://www.w3.org/2000/svg">
<path d="M2.96592 8.96591C2.40342 8.96591 1.902 8.86932 1.46166 8.67613C1.02416 8.48295 0.676148 8.21449 0.417625 7.87074C0.161943 7.52414 0.0227384 7.12216 1.11461e-05 6.66477H1.07387C1.0966 6.94602 1.19319 7.18892 1.36365 7.39346C1.5341 7.59517 1.75711 7.75142 2.03268 7.86221C2.30825 7.97301 2.61365 8.02841 2.94887 8.02841C3.32387 8.02841 3.65626 7.96307 3.94603 7.83238C4.23581 7.7017 4.46308 7.51988 4.62785 7.28693C4.79262 7.05397 4.87501 6.78409 4.87501 6.47727C4.87501 6.15625 4.79547 5.87358 4.63637 5.62926C4.47728 5.3821 4.24433 5.18892 3.93751 5.04971C3.63069 4.91051 3.25569 4.84091 2.81251 4.84091H2.11365V3.90341H2.81251C3.1591 3.90341 3.46308 3.84091 3.72444 3.71591C3.98865 3.59091 4.19461 3.41477 4.34234 3.1875C4.49291 2.96022 4.56819 2.69318 4.56819 2.38636C4.56819 2.09091 4.50285 1.8338 4.37217 1.61505C4.24149 1.3963 4.05683 1.22585 3.81819 1.10369C3.5824 0.981531 3.30399 0.920452 2.98297 0.920452C2.68183 0.920452 2.39774 0.975849 2.13069 1.08664C1.86649 1.1946 1.65058 1.35227 1.48297 1.55966C1.31535 1.7642 1.22444 2.01136 1.21024 2.30113H0.187511C0.204557 1.84375 0.342341 1.44318 0.600863 1.09943C0.859386 0.752838 1.19745 0.482951 1.61507 0.28977C2.03552 0.0965879 2.49717 -3.09944e-06 3.00001 -3.09944e-06C3.53978 -3.09944e-06 4.00285 0.109372 4.38922 0.328122C4.77558 0.544031 5.07245 0.829542 5.27984 1.18466C5.48723 1.53977 5.59092 1.92329 5.59092 2.33522C5.59092 2.8267 5.46166 3.24574 5.20314 3.59233C4.94745 3.93892 4.59944 4.17897 4.1591 4.3125V4.38068C4.71024 4.47159 5.14064 4.70596 5.4503 5.0838C5.75995 5.4588 5.91478 5.92329 5.91478 6.47727C5.91478 6.9517 5.78552 7.37784 5.527 7.75568C5.27132 8.13068 4.92189 8.42613 4.4787 8.64204C4.03552 8.85795 3.53126 8.96591 2.96592 8.96591ZM10.5554 8.96591C10.1975 8.96022 9.8395 8.89204 9.48155 8.76136C9.12359 8.63068 8.79689 8.41051 8.50143 8.10085C8.20598 7.78835 7.96876 7.36647 7.78978 6.83522C7.61081 6.30113 7.52132 5.63068 7.52132 4.82386C7.52132 4.05113 7.59376 3.36647 7.73865 2.76988C7.88353 2.17045 8.09376 1.66619 8.36933 1.2571C8.6449 0.845168 8.97728 0.532667 9.36649 0.319599C9.75853 0.106531 10.2003 -3.09944e-06 10.6918 -3.09944e-06C11.1804 -3.09944e-06 11.6151 0.0980084 11.9957 0.294031C12.3793 0.487213 12.6918 0.757099 12.9333 1.10369C13.1747 1.45028 13.331 1.84943 13.402 2.30113H12.3622C12.2656 1.90909 12.0781 1.5838 11.7997 1.32528C11.5213 1.06676 11.152 0.937497 10.6918 0.937497C10.0156 0.937497 9.48297 1.23153 9.09376 1.8196C8.7074 2.40767 8.5128 3.23295 8.50995 4.29545H8.57814C8.73723 4.05397 8.92615 3.84801 9.1449 3.67755C9.36649 3.50426 9.61081 3.37074 9.87785 3.27699C10.1449 3.18324 10.4276 3.13636 10.7259 3.13636C11.2259 3.13636 11.6832 3.26136 12.098 3.51136C12.5128 3.75852 12.8452 4.10085 13.0952 4.53835C13.3452 4.97301 13.4702 5.47159 13.4702 6.03409C13.4702 6.57386 13.3494 7.06818 13.108 7.51704C12.8665 7.96307 12.527 8.31818 12.0895 8.58238C11.6548 8.84375 11.1435 8.97159 10.5554 8.96591ZM10.5554 8.02841C10.9134 8.02841 11.2344 7.93892 11.5185 7.75994C11.8054 7.58096 12.0313 7.34091 12.196 7.03977C12.3636 6.73863 12.4475 6.40341 12.4475 6.03409C12.4475 5.67329 12.3665 5.34517 12.2046 5.04971C12.0455 4.75142 11.8253 4.5142 11.544 4.33807C11.2656 4.16193 10.9475 4.07386 10.5895 4.07386C10.3196 4.07386 10.0682 4.12784 9.83524 4.23579C9.60228 4.34091 9.39774 4.48579 9.2216 4.67045C9.04831 4.85511 8.91194 5.06676 8.81251 5.30539C8.71308 5.54119 8.66336 5.78977 8.66336 6.05113C8.66336 6.39772 8.74433 6.72159 8.90626 7.02272C9.07103 7.32386 9.29547 7.56676 9.57956 7.75142C9.86649 7.93608 10.1918 8.02841 10.5554 8.02841Z" fill="black"/>
</svg>
