<svg width="14" height="9" viewBox="0 0 14 9" fill="none" xmlns="http://www.w3.org/2000/svg">
<path d="M2.96592 8.96591C2.40342 8.96591 1.902 8.86932 1.46166 8.67613C1.02416 8.48295 0.676148 8.21449 0.417625 7.87074C0.161943 7.52414 0.0227384 7.12216 1.11461e-05 6.66477H1.07387C1.0966 6.94602 1.19319 7.18892 1.36365 7.39346C1.5341 7.59517 1.75711 7.75142 2.03268 7.86221C2.30825 7.97301 2.61365 8.02841 2.94887 8.02841C3.32387 8.02841 3.65626 7.96307 3.94603 7.83238C4.23581 7.7017 4.46308 7.51988 4.62785 7.28693C4.79262 7.05397 4.87501 6.78409 4.87501 6.47727C4.87501 6.15625 4.79547 5.87358 4.63637 5.62926C4.47728 5.3821 4.24433 5.18892 3.93751 5.04971C3.63069 4.91051 3.25569 4.84091 2.81251 4.84091H2.11365V3.90341H2.81251C3.1591 3.90341 3.46308 3.84091 3.72444 3.71591C3.98865 3.59091 4.19461 3.41477 4.34234 3.1875C4.49291 2.96022 4.56819 2.69318 4.56819 2.38636C4.56819 2.09091 4.50285 1.8338 4.37217 1.61505C4.24149 1.3963 4.05683 1.22585 3.81819 1.10369C3.5824 0.981531 3.30399 0.920452 2.98297 0.920452C2.68183 0.920452 2.39774 0.975849 2.13069 1.08664C1.86649 1.1946 1.65058 1.35227 1.48297 1.55966C1.31535 1.7642 1.22444 2.01136 1.21024 2.30113H0.187511C0.204557 1.84375 0.342341 1.44318 0.600863 1.09943C0.859386 0.752838 1.19745 0.482951 1.61507 0.28977C2.03552 0.0965879 2.49717 -3.09944e-06 3.00001 -3.09944e-06C3.53978 -3.09944e-06 4.00285 0.109372 4.38922 0.328122C4.77558 0.544031 5.07245 0.829542 5.27984 1.18466C5.48723 1.53977 5.59092 1.92329 5.59092 2.33522C5.59092 2.8267 5.46166 3.24574 5.20314 3.59233C4.94745 3.93892 4.59944 4.17897 4.1591 4.3125V4.38068C4.71024 4.47159 5.14064 4.70596 5.4503 5.0838C5.75995 5.4588 5.91478 5.92329 5.91478 6.47727C5.91478 6.9517 5.78552 7.37784 5.527 7.75568C5.27132 8.13068 4.92189 8.42613 4.4787 8.64204C4.03552 8.85795 3.53126 8.96591 2.96592 8.96591ZM10.4531 8.96591C9.86791 8.96591 9.35086 8.86221 8.902 8.65483C8.45598 8.4446 8.10797 8.15625 7.85797 7.78977C7.60797 7.42045 7.48439 7 7.48723 6.52841C7.48439 6.15909 7.55683 5.81818 7.70456 5.50568C7.85228 5.19034 8.05399 4.92755 8.30967 4.71733C8.56819 4.50426 8.85655 4.36932 9.17473 4.3125V4.26136C8.75711 4.15341 8.42473 3.91903 8.17757 3.55824C7.93041 3.1946 7.80825 2.78125 7.81109 2.31818C7.80825 1.875 7.92047 1.47869 8.14774 1.12926C8.37501 0.779826 8.68751 0.504258 9.08524 0.302554C9.48581 0.100849 9.94177 -3.09944e-06 10.4531 -3.09944e-06C10.9588 -3.09944e-06 11.4105 0.100849 11.8082 0.302554C12.206 0.504258 12.5185 0.779826 12.7457 1.12926C12.9759 1.47869 13.0923 1.875 13.0952 2.31818C13.0923 2.78125 12.9659 3.1946 12.7159 3.55824C12.4688 3.91903 12.1406 4.15341 11.7315 4.26136V4.3125C12.0469 4.36932 12.331 4.50426 12.5838 4.71733C12.8367 4.92755 13.0384 5.19034 13.1889 5.50568C13.3395 5.81818 13.4162 6.15909 13.419 6.52841C13.4162 7 13.2884 7.42045 13.0355 7.78977C12.7855 8.15625 12.4375 8.4446 11.9915 8.65483C11.5483 8.86221 11.0355 8.96591 10.4531 8.96591ZM10.4531 8.02841C10.848 8.02841 11.1889 7.96449 11.4759 7.83664C11.7628 7.7088 11.9844 7.52841 12.1406 7.29545C12.2969 7.0625 12.3764 6.78977 12.3793 6.47727C12.3764 6.14772 12.2912 5.85653 12.1236 5.60369C11.956 5.35085 11.7273 5.15199 11.4375 5.0071C11.1506 4.86221 10.8225 4.78977 10.4531 4.78977C10.081 4.78977 9.74859 4.86221 9.45598 5.0071C9.1662 5.15199 8.93751 5.35085 8.7699 5.60369C8.60512 5.85653 8.52416 6.14772 8.527 6.47727C8.52416 6.78977 8.59944 7.0625 8.75285 7.29545C8.9091 7.52841 9.13211 7.7088 9.42189 7.83664C9.71166 7.96449 10.0554 8.02841 10.4531 8.02841ZM10.4531 3.88636C10.7656 3.88636 11.0426 3.82386 11.2841 3.69886C11.5284 3.57386 11.7202 3.39914 11.8594 3.17471C11.9986 2.95028 12.0696 2.6875 12.0725 2.38636C12.0696 2.09091 12 1.8338 11.8636 1.61505C11.7273 1.39346 11.5384 1.22301 11.2969 1.10369C11.0554 0.981531 10.7742 0.920452 10.4531 0.920452C10.1264 0.920452 9.84092 0.981531 9.5966 1.10369C9.35228 1.22301 9.16336 1.39346 9.02984 1.61505C8.89632 1.8338 8.83098 2.09091 8.83382 2.38636C8.83098 2.6875 8.89774 2.95028 9.0341 3.17471C9.17331 3.39914 9.36507 3.57386 9.60939 3.69886C9.8537 3.82386 10.135 3.88636 10.4531 3.88636Z" fill="black"/>
</svg>
