<svg width="14" height="9" viewBox="0 0 14 9" fill="none" xmlns="http://www.w3.org/2000/svg">
<path d="M1.11014e-05 7.05682V6.1875L3.83524 0.119315H4.46592V1.46591H4.03978L1.14206 6.05113V6.11932H6.30683V7.05682H1.11014e-05ZM4.10797 8.84659V6.79261V6.38778V0.119315H5.11365V8.84659H4.10797ZM7.90378 8.84659V8.07954L10.7845 4.92613C11.1225 4.55682 11.4009 4.23579 11.6197 3.96307C11.8384 3.6875 12.0004 3.42897 12.1055 3.1875C12.2134 2.94318 12.2674 2.6875 12.2674 2.42045C12.2674 2.11363 12.1935 1.84801 12.0458 1.62358C11.9009 1.39914 11.7021 1.22585 11.4492 1.10369C11.1964 0.981531 10.9123 0.920452 10.597 0.920452C10.2617 0.920452 9.96912 0.990054 9.71912 1.12926C9.47196 1.26562 9.2802 1.45738 9.14383 1.70454C9.01031 1.9517 8.94355 2.24147 8.94355 2.57386H7.93787C7.93787 2.0625 8.05576 1.61363 8.29156 1.22727C8.52735 0.840906 8.84838 0.539769 9.25463 0.32386C9.66372 0.107951 10.1225 -3.09944e-06 10.631 -3.09944e-06C11.1424 -3.09944e-06 11.5955 0.107951 11.9904 0.32386C12.3853 0.539769 12.695 0.830963 12.9194 1.19744C13.1438 1.56392 13.256 1.97159 13.256 2.42045C13.256 2.74147 13.1978 3.05539 13.0813 3.36221C12.9677 3.66619 12.7688 4.00568 12.4847 4.38068C12.2035 4.75284 11.8129 5.20738 11.3129 5.74432L9.35264 7.84091V7.90909H13.4095V8.84659H7.90378Z" fill="black"/>
</svg>
