<svg width="14" height="9" viewBox="0 0 14 9" fill="none" xmlns="http://www.w3.org/2000/svg">
<path d="M1.11014e-05 7.05682V6.1875L3.83524 0.119315H4.46592V1.46591H4.03978L1.14206 6.05113V6.11932H6.30683V7.05682H1.11014e-05ZM4.10797 8.84659V6.79261V6.38778V0.119315H5.11365V8.84659H4.10797ZM10.8526 8.96591C10.2901 8.96591 9.78872 8.86932 9.34838 8.67613C8.91088 8.48295 8.56287 8.21449 8.30434 7.87074C8.04866 7.52414 7.90946 7.12216 7.88673 6.66477H8.96059C8.98332 6.94602 9.07991 7.18892 9.25037 7.39346C9.42082 7.59517 9.64383 7.75142 9.9194 7.86221C10.195 7.97301 10.5004 8.02841 10.8356 8.02841C11.2106 8.02841 11.543 7.96307 11.8328 7.83238C12.1225 7.7017 12.3498 7.51988 12.5146 7.28693C12.6793 7.05397 12.7617 6.78409 12.7617 6.47727C12.7617 6.15625 12.6822 5.87358 12.5231 5.62926C12.364 5.3821 12.131 5.18892 11.8242 5.04971C11.5174 4.91051 11.1424 4.84091 10.6992 4.84091H10.0004V3.90341H10.6992C11.0458 3.90341 11.3498 3.84091 11.6112 3.71591C11.8754 3.59091 12.0813 3.41477 12.2291 3.1875C12.3796 2.96022 12.4549 2.69318 12.4549 2.38636C12.4549 2.09091 12.3896 1.8338 12.2589 1.61505C12.1282 1.3963 11.9435 1.22585 11.7049 1.10369C11.4691 0.981531 11.1907 0.920452 10.8697 0.920452C10.5685 0.920452 10.2845 0.975849 10.0174 1.08664C9.75321 1.1946 9.5373 1.35227 9.36968 1.55966C9.20207 1.7642 9.11116 2.01136 9.09696 2.30113H8.07423C8.09128 1.84375 8.22906 1.44318 8.48758 1.09943C8.7461 0.752838 9.08417 0.482951 9.50179 0.28977C9.92224 0.0965879 10.3839 -3.09944e-06 10.8867 -3.09944e-06C11.4265 -3.09944e-06 11.8896 0.109372 12.2759 0.328122C12.6623 0.544031 12.9592 0.829542 13.1666 1.18466C13.3739 1.53977 13.4776 1.92329 13.4776 2.33522C13.4776 2.8267 13.3484 3.24574 13.0899 3.59233C12.8342 3.93892 12.4862 4.17897 12.0458 4.3125V4.38068C12.597 4.47159 13.0274 4.70596 13.337 5.0838C13.6467 5.4588 13.8015 5.92329 13.8015 6.47727C13.8015 6.9517 13.6722 7.37784 13.4137 7.75568C13.158 8.13068 12.8086 8.42613 12.3654 8.64204C11.9222 8.85795 11.418 8.96591 10.8526 8.96591Z" fill="black"/>
</svg>
