<svg width="14" height="9" viewBox="0 0 14 9" fill="none" xmlns="http://www.w3.org/2000/svg">
<path d="M1.11014e-05 6.93749V6.06817L3.83524 -8.58307e-06H4.46592V1.34658H4.03978L1.14206 5.93181V5.99999H6.30683V6.93749H1.11014e-05ZM4.10797 8.72726V6.67329V6.26846V-8.58307e-06H5.11365V8.72726H4.10797ZM10.631 8.84658C10.131 8.84658 9.68076 8.74715 9.2802 8.54829C8.87963 8.34942 8.5586 8.0767 8.31713 7.73011C8.07565 7.38351 7.94355 6.98863 7.92082 6.54545H8.94355C8.98332 6.94033 9.1623 7.26704 9.48048 7.52556C9.8015 7.78124 10.185 7.90908 10.631 7.90908C10.989 7.90908 11.3072 7.82528 11.5856 7.65766C11.8668 7.49005 12.087 7.25993 12.2461 6.96732C12.408 6.67187 12.489 6.33806 12.489 5.9659C12.489 5.58522 12.4052 5.24573 12.2376 4.94743C12.0728 4.6463 11.8455 4.40908 11.5558 4.23579C11.266 4.06249 10.935 3.97442 10.5629 3.97158C10.2958 3.96874 10.0217 4.00993 9.74042 4.09516C9.45917 4.17755 9.22764 4.28408 9.04582 4.41476L8.05718 4.29545L8.58559 -8.58307e-06H13.1197V0.937491H9.47196L9.16514 3.51136H9.21628C9.39525 3.36931 9.61968 3.25141 9.88957 3.15766C10.1595 3.06391 10.4407 3.01704 10.7333 3.01704C11.2674 3.01704 11.7433 3.14488 12.1609 3.40056C12.5813 3.6534 12.9109 3.99999 13.1495 4.44033C13.391 4.88067 13.5117 5.38351 13.5117 5.94886C13.5117 6.50567 13.3867 7.00283 13.1367 7.44033C12.8896 7.87499 12.5487 8.21874 12.114 8.47158C11.6793 8.72158 11.185 8.84658 10.631 8.84658Z" fill="black"/>
</svg>
