<svg width="14" height="9" viewBox="0 0 14 9" fill="none" xmlns="http://www.w3.org/2000/svg">
<path d="M-4.15742e-06 7.05682V6.1875L3.83522 0.119315H4.46591V1.46591H4.03977L1.14204 6.05113V6.11932H6.30681V7.05682H-4.15742e-06ZM4.10795 8.84659V6.79261V6.38778V0.119315H5.11363V8.84659H4.10795ZM10.8015 8.96591C10.4435 8.96022 10.0856 8.89204 9.72762 8.76136C9.36967 8.63068 9.04296 8.41051 8.74751 8.10085C8.45206 7.78835 8.21484 7.36647 8.03586 6.83522C7.85689 6.30113 7.7674 5.63068 7.7674 4.82386C7.7674 4.05113 7.83984 3.36647 7.98473 2.76988C8.12961 2.17045 8.33984 1.66619 8.61541 1.2571C8.89098 0.845168 9.22336 0.532667 9.61257 0.319599C10.0046 0.106531 10.4464 -3.09944e-06 10.9379 -3.09944e-06C11.4265 -3.09944e-06 11.8611 0.0980084 12.2418 0.294031C12.6254 0.487213 12.9379 0.757099 13.1793 1.10369C13.4208 1.45028 13.5771 1.84943 13.6481 2.30113H12.6083C12.5117 1.90909 12.3242 1.5838 12.0458 1.32528C11.7674 1.06676 11.3981 0.937497 10.9379 0.937497C10.2617 0.937497 9.72904 1.23153 9.33984 1.8196C8.95348 2.40767 8.75887 3.23295 8.75603 4.29545H8.82421C8.98331 4.05397 9.17223 3.84801 9.39098 3.67755C9.61257 3.50426 9.85689 3.37074 10.1239 3.27699C10.391 3.18324 10.6736 3.13636 10.9719 3.13636C11.4719 3.13636 11.9293 3.26136 12.3441 3.51136C12.7589 3.75852 13.0913 4.10085 13.3413 4.53835C13.5913 4.97301 13.7163 5.47159 13.7163 6.03409C13.7163 6.57386 13.5955 7.06818 13.354 7.51704C13.1126 7.96307 12.7731 8.31818 12.3356 8.58238C11.9009 8.84375 11.3896 8.97159 10.8015 8.96591ZM10.8015 8.02841C11.1594 8.02841 11.4805 7.93892 11.7646 7.75994C12.0515 7.58096 12.2773 7.34091 12.4421 7.03977C12.6097 6.73863 12.6935 6.40341 12.6935 6.03409C12.6935 5.67329 12.6126 5.34517 12.4506 5.04971C12.2915 4.75142 12.0714 4.5142 11.7901 4.33807C11.5117 4.16193 11.1935 4.07386 10.8356 4.07386C10.5657 4.07386 10.3143 4.12784 10.0813 4.23579C9.84836 4.34091 9.64382 4.48579 9.46768 4.67045C9.29439 4.85511 9.15802 5.06676 9.05859 5.30539C8.95916 5.54119 8.90944 5.78977 8.90944 6.05113C8.90944 6.39772 8.99041 6.72159 9.15234 7.02272C9.31711 7.32386 9.54154 7.56676 9.82564 7.75142C10.1126 7.93608 10.4379 8.02841 10.8015 8.02841Z" fill="black"/>
</svg>
