<svg width="14" height="9" viewBox="0 0 14 9" fill="none" xmlns="http://www.w3.org/2000/svg">
<path d="M-3.42727e-07 7.05682V6.1875L3.83523 0.119315H4.46591V1.46591H4.03977L1.14205 6.05113V6.11932H6.30682V7.05682H-3.42727e-07ZM4.10795 8.84659V6.79261V6.38778V0.119315H5.11364V8.84659H4.10795ZM10.6992 8.96591C10.114 8.96591 9.59695 8.86221 9.14808 8.65483C8.70206 8.4446 8.35405 8.15625 8.10405 7.78977C7.85405 7.42045 7.73047 7 7.73331 6.52841C7.73047 6.15909 7.80291 5.81818 7.95064 5.50568C8.09837 5.19034 8.30007 4.92755 8.55575 4.71733C8.81428 4.50426 9.10263 4.36932 9.42081 4.3125V4.26136C9.0032 4.15341 8.67081 3.91903 8.42365 3.55824C8.17649 3.1946 8.05433 2.78125 8.05717 2.31818C8.05433 1.875 8.16655 1.47869 8.39382 1.12926C8.62109 0.779826 8.93359 0.504258 9.33132 0.302554C9.73189 0.100849 10.1879 -3.09944e-06 10.6992 -3.09944e-06C11.2049 -3.09944e-06 11.6566 0.100849 12.0543 0.302554C12.4521 0.504258 12.7646 0.779826 12.9918 1.12926C13.2219 1.47869 13.3384 1.875 13.3413 2.31818C13.3384 2.78125 13.212 3.1946 12.962 3.55824C12.7148 3.91903 12.3867 4.15341 11.9776 4.26136V4.3125C12.293 4.36932 12.5771 4.50426 12.8299 4.71733C13.0827 4.92755 13.2844 5.19034 13.435 5.50568C13.5856 5.81818 13.6623 6.15909 13.6651 6.52841C13.6623 7 13.5344 7.42045 13.2816 7.78977C13.0316 8.15625 12.6836 8.4446 12.2376 8.65483C11.7944 8.86221 11.2816 8.96591 10.6992 8.96591ZM10.6992 8.02841C11.0941 8.02841 11.435 7.96449 11.7219 7.83664C12.0089 7.7088 12.2305 7.52841 12.3867 7.29545C12.543 7.0625 12.6225 6.78977 12.6254 6.47727C12.6225 6.14772 12.5373 5.85653 12.3697 5.60369C12.2021 5.35085 11.9734 5.15199 11.6836 5.0071C11.3967 4.86221 11.0685 4.78977 10.6992 4.78977C10.3271 4.78977 9.99467 4.86221 9.70206 5.0071C9.41229 5.15199 9.18359 5.35085 9.01598 5.60369C8.85121 5.85653 8.77024 6.14772 8.77308 6.47727C8.77024 6.78977 8.84553 7.0625 8.99893 7.29545C9.15518 7.52841 9.3782 7.7088 9.66797 7.83664C9.95774 7.96449 10.3015 8.02841 10.6992 8.02841ZM10.6992 3.88636C11.0117 3.88636 11.2887 3.82386 11.5302 3.69886C11.7745 3.57386 11.9663 3.39914 12.1055 3.17471C12.2447 2.95028 12.3157 2.6875 12.3185 2.38636C12.3157 2.09091 12.2461 1.8338 12.1097 1.61505C11.9734 1.39346 11.7844 1.22301 11.543 1.10369C11.3015 0.981531 11.0202 0.920452 10.6992 0.920452C10.3725 0.920452 10.087 0.981531 9.84268 1.10369C9.59837 1.22301 9.40945 1.39346 9.27592 1.61505C9.1424 1.8338 9.07706 2.09091 9.0799 2.38636C9.07706 2.6875 9.14382 2.95028 9.28018 3.17471C9.41939 3.39914 9.61115 3.57386 9.85547 3.69886C10.0998 3.82386 10.381 3.88636 10.6992 3.88636Z" fill="black"/>
</svg>
