<svg width="37" height="37" viewBox="0 0 37 37" fill="none" xmlns="http://www.w3.org/2000/svg">
<path d="M17.1189 3.08649C13.8401 4.30835 9.9521 5.53943 6.8428 6.41886C5.3513 8.31134 4.68191 8.9135 3.91639 9.34676C2.95672 9.88989 1.87863 10.1594 1.33958 13.0711C0.800535 21.3732 0.701848 28.457 2.58104 29.908C6.27265 32.7584 10.8852 35.4838 15.9346 35.4781C23.1627 35.47 31.198 36.1632 34.0252 32.1949C35.381 30.2919 36.8536 20.7502 34.4173 13.6795C32.9145 9.31817 32.872 1.94567 28.549 1.16717C25.5557 0.628131 21.5808 1.4237 17.1189 3.08649Z" fill="white"/>
<path d="M4.06748 7.16199C7.31807 6.35343 12.7575 4.7118 17.1189 3.08649C21.5808 1.4237 25.5557 0.628131 28.549 1.16717C32.872 1.94567 32.9145 9.31817 34.4173 13.6795C36.8536 20.7502 35.381 30.2919 34.0252 32.1949C31.198 36.1632 23.1627 35.47 15.9346 35.4781C10.8852 35.4838 6.27265 32.7584 2.58104 29.908C0.701848 28.457 0.800535 21.3732 1.33958 13.0711C1.87863 10.1594 2.95672 9.88989 3.91639 9.34676C4.87605 8.80363 5.68463 7.99506 8.15114 4.7118" stroke="black" stroke-width="2" stroke-linecap="round"/>
</svg>
