<svg width="39" height="56" viewBox="0 0 39 56" fill="none" xmlns="http://www.w3.org/2000/svg">
<path d="M11.832 2.87373C12.3701 2.90583 15.0687 3.06677 18.9745 3.8397C21.5421 4.34784 21.2445 9.67783 20.8104 14.692C20.3552 19.9508 16.6182 23.3192 15.1356 27.5999C13.595 32.0484 11.2257 36.0886 10.0619 41.7464C9.5421 44.2737 8.15519 46.28 7.09616 48.1232C6.56425 49.049 5.26211 49.3802 4.45423 49.0702C0.577756 47.5827 1.11557 40.9838 1.84318 21.7181C3.50351 14.388 5.39275 10.1479 7.299 5.62249C7.6574 4.2775 7.75367 2.66322 7.85286 1.00002" stroke="black" stroke-width="2" stroke-linecap="round"/>
<path d="M22.8563 9.83127C22.2015 11.5128 20.8452 15.3773 19.7768 19.2737C18.6942 23.2222 16.7557 41.683 19.4541 52.5084C19.7401 53.6558 21.615 53.7496 22.7291 53.9459C23.8433 54.1421 24.9629 53.9641 25.8451 53.4012C29.4697 51.0883 29.3649 46.0837 30.4459 42.188C31.58 38.1005 33.7036 34.4767 35.0566 30.5972C36.7122 25.8501 37.0966 19.8469 37.3047 14.1748C36.1793 12.1239 35.1522 10.3272 34.5745 8.32011C34.215 7.30492 33.7206 6.29652 33.2553 4.51854" stroke="black" stroke-width="2" stroke-linecap="round"/>
</svg>
