<svg width="54" height="55" viewBox="0 0 54 55" fill="none" xmlns="http://www.w3.org/2000/svg">
<path d="M41.9609 47.9833C42.9463 46.3206 45.607 42.9931 47.2609 38.9835C49.1701 34.3548 51.5736 30.9765 52.7279 25.3183C53.2597 22.7115 52.8786 18.3728 52.3765 15.8342C51.6921 12.3735 47.8789 11.3067 43.8675 8.98785C41.8688 7.6634 40.1842 5.99808 38.8486 4.00678C38.1758 3.00365 37.5131 2.01549 35.8302 1.00016" stroke="black" stroke-width="2" stroke-linecap="round"/>
<path d="M33.9273 1.44917C31.9391 2.1147 27.9565 4.78578 25.2867 8.45822C22.899 11.7427 22.649 16.4606 21.8197 22.1279C21.6585 23.4734 21.3312 24.4643 21.164 25.4697C20.9968 26.4752 20.9995 27.4652 22.0024 28.4824" stroke="black" stroke-width="2" stroke-linecap="round"/>
<path d="M23.8636 13.0335C22.2009 12.0481 19.5298 8.0655 15.8569 5.2307C12.6166 2.72979 7.86331 5.73792 3.85973 6.25406C2.84963 6.38427 1.86611 6.7546 1.52296 7.42056C-0.182366 10.7301 2.88575 21.0118 2.24039 28.0786C2.05656 30.0916 2.91927 33.0718 3.42353 36.4004C6.92783 39.7407 10.267 43.0514 13.115 47.7135C13.9528 48.7212 14.9446 49.3784 16.9693 51.0528" stroke="black" stroke-width="2" stroke-linecap="round"/>
<path d="M41.9609 47.9833C40.9755 49.6461 36.9911 51.6571 30.4975 52.1802C25.9858 53.3577 21.9976 54.0388 17.8244 52.8904C16.653 52.3937 15.3312 51.7374 13.9693 51.0611" stroke="black" stroke-width="2" stroke-linecap="round"/>
<path d="M41.9609 47.9833C40.9755 49.6461 36.9911 51.6571 30.4975 52.1802C25.9858 53.3577 21.9976 54.0388 17.8244 52.8904C16.653 52.3937 15.3312 51.7374 13.9693 51.0611" stroke="black" stroke-width="2" stroke-linecap="round"/>
</svg>
