<svg width="37" height="38" viewBox="0 0 37 38" fill="none" xmlns="http://www.w3.org/2000/svg">
<path d="M9.35595 4.58066C12.6521 2.42078 22.2788 1 26.7925 1C29.0835 1.24397 29.8345 1.48077 30.468 1.96513C31.6021 3.15988 33.1193 5.31258 35.1448 8.18643C36.6544 14.4759 35.8783 24.026 35.0082 26.8432C34.1207 29.717 33.6431 33.4031 30.5742 34.6108C29.0608 35.2064 26.6624 34.9646 24.1222 35.6872C19.9347 36.8783 14.4455 37.8723 12.6255 35.7948C10.8466 33.7641 6.80489 33.7665 4.91051 31.0086C3.01779 28.2532 -2.79332 9.84526 4.80431 6.85534C6.31773 6.25976 7.86077 5.56041 9.35595 4.58066Z" fill="white" stroke="black" stroke-width="2" stroke-linecap="round"/>
</svg>
