<svg width="57" height="57" viewBox="0 0 57 57" fill="none" xmlns="http://www.w3.org/2000/svg">
<path d="M41.1782 50.4333C42.3113 48.8675 45.2648 45.797 47.2779 41.9552C49.6018 37.5201 52.3039 34.3754 53.97 28.8463C54.7376 26.299 54.7543 21.9436 54.4862 19.3697C54.1207 15.861 50.4209 14.4504 46.6379 11.7749C44.7685 10.2735 43.243 8.46128 42.0949 6.35634C41.5165 5.29596 40.9468 4.2514 39.3637 3.08664" stroke="black" stroke-width="2" stroke-linecap="round"/>
<path d="M37.4277 3.35999C35.3871 3.84118 31.1772 6.13741 28.1832 9.55069C25.5055 12.6034 24.8257 17.2787 23.4823 22.8466C23.1989 24.1718 22.7825 25.1286 22.5242 26.1146C22.2658 27.1006 22.1782 28.0867 23.0839 29.1913" stroke="black" stroke-width="2" stroke-linecap="round"/>
<path d="M26.3482 13.9769C24.7824 12.8438 22.4862 8.63389 19.0875 5.47552C16.0891 2.68915 11.081 5.25064 7.04699 5.39901C6.02922 5.43644 5.01599 5.7154 4.61346 6.34724C2.61303 9.48723 4.72939 20.0062 3.44138 26.9845C3.0745 28.9722 3.66145 32.0188 3.85962 35.3795C7.04424 39.0259 10.0672 42.6277 12.4775 47.5304C13.2198 48.6104 14.1474 49.3554 16.0107 51.2077" stroke="black" stroke-width="2" stroke-linecap="round"/>
<path d="M41.1782 50.4333C40.0451 51.9992 35.8936 53.638 29.3794 53.5658C24.779 54.3264 20.7454 54.6405 16.6945 53.1158C15.5733 52.5141 14.317 51.7398 13.0225 50.9421" stroke="black" stroke-width="2" stroke-linecap="round"/>
<path d="M41.1782 50.4333C40.0451 51.9992 35.8936 53.638 29.3794 53.5658C24.779 54.3264 20.7454 54.6405 16.6945 53.1158C15.5733 52.5141 14.317 51.7398 13.0225 50.9421" stroke="black" stroke-width="2" stroke-linecap="round"/>
</svg>
