<svg width="39" height="42" viewBox="0 0 39 42" fill="none" xmlns="http://www.w3.org/2000/svg">
<path d="M9.83343 4.97851C13.3179 2.57865 23.4948 1 28.2664 1C30.6883 1.27108 31.4822 1.53419 32.1519 2.07236C33.3508 3.39986 34.9547 5.79174 37.0959 8.98489L37.0959 8.98492C38.6918 15.9732 37.8713 26.5844 36.9516 29.7146C36.0133 32.9078 35.5084 37.0035 32.2641 38.3454C30.6642 39.0071 28.1288 38.7385 25.4435 39.5413C21.0167 40.8648 15.2138 41.9693 13.2899 39.6609C11.4093 37.4045 7.1366 37.4072 5.13397 34.3429C3.13309 31.2813 -3.01008 10.8281 5.0217 7.50594C6.6216 6.84418 8.25281 6.06712 9.83343 4.97851Z" fill="white" stroke="black" stroke-width="2" stroke-linecap="round"/>
</svg>
