<svg width="56" height="56" viewBox="0 0 56 56" fill="none" xmlns="http://www.w3.org/2000/svg">
<path d="M43.6922 47.6434C44.5984 45.9362 47.0999 42.4874 48.5635 38.4045C50.2531 33.6912 52.4953 30.2037 53.3824 24.4975C53.7911 21.8686 53.2066 17.5526 52.5858 15.0404C51.7396 11.6156 47.8805 10.7292 43.7645 8.60141C41.7058 7.37234 39.9447 5.78801 38.5171 3.86167C37.7979 2.89125 37.0895 1.93532 35.3608 1.00019" stroke="black" stroke-width="2" stroke-linecap="round"/>
<path d="M33.481 1.53809C31.5263 2.2963 27.6737 5.15156 25.1794 8.94539C22.9486 12.3384 22.9205 17.0629 22.3585 22.7629C22.2606 24.1144 21.9803 25.1196 21.8605 26.1318C21.7407 27.1441 21.79 28.1328 22.8395 29.1018" stroke="black" stroke-width="2" stroke-linecap="round"/>
<path d="M23.9728 13.5824C22.2656 12.6763 19.4104 8.8236 15.6083 6.1645C12.2541 3.8186 7.64737 7.04676 3.67246 7.75044C2.6696 7.92797 1.70456 8.3441 1.39308 9.02544C-0.154855 12.4115 3.39297 22.5377 3.08037 29.627C2.99133 31.6463 3.99312 34.5827 4.65321 37.884C8.31059 41.0559 11.8017 44.2061 14.8656 48.7292C15.7498 49.6964 16.7714 50.3063 18.8725 51.8837" stroke="black" stroke-width="2" stroke-linecap="round"/>
<path d="M43.6922 47.6434C42.7861 49.3506 38.9005 51.5466 32.4387 52.3742C27.9873 53.7625 24.0356 54.6302 19.813 53.6791C18.6196 53.238 17.2684 52.6445 15.8762 52.033" stroke="black" stroke-width="2" stroke-linecap="round"/>
<path d="M43.6922 47.6434C42.7861 49.3506 38.9005 51.5466 32.4387 52.3742C27.9873 53.7625 24.0356 54.6302 19.813 53.6791C18.6196 53.238 17.2684 52.6445 15.8762 52.033" stroke="black" stroke-width="2" stroke-linecap="round"/>
</svg>
