<svg width="35" height="38" viewBox="0 0 35 38" fill="none" xmlns="http://www.w3.org/2000/svg">
<path d="M23.3988 34.9341C20.0898 36.5453 11.2618 36.3527 7.23668 35.5948C5.23543 34.9655 4.60623 34.6021 4.12427 34.0103C3.31741 32.6225 2.33291 30.2103 1.01859 26.9899L1.01858 26.9899C0.748935 20.433 3.07575 10.9921 4.33386 8.31482C5.61728 5.58364 6.67416 1.96958 9.61758 1.27452C11.0691 0.931754 13.1665 1.57681 15.5554 1.27919C19.4936 0.788549 24.5588 0.714092 25.8261 3.10181C27.0649 5.43573 30.6696 6.112 31.8868 9.19407C33.103 12.2734 35.1342 31.6979 27.8472 33.4187C26.3956 33.7614 24.8999 34.2032 23.3988 34.9341Z" fill="white" stroke="black" stroke-width="2" stroke-linecap="round"/>
</svg>
