<svg width="37" height="54" viewBox="0 0 37 54" fill="none" xmlns="http://www.w3.org/2000/svg">
<path d="M10.0612 2.75992C10.6131 2.75992 13.3807 2.75992 17.4193 3.34069C20.0743 3.72249 20.0949 9.47388 19.957 14.8943C19.8123 20.5794 16.1985 24.4417 14.9443 29.1406C13.641 34.0236 11.4659 38.5207 10.6214 44.6803C10.2442 47.4317 8.94915 49.6784 7.97922 51.7286C7.49206 52.7584 6.18152 53.1981 5.33702 52.9166C1.2848 51.5654 1.43224 44.4339 1.00162 23.6673C2.25164 15.6774 3.92392 10.9961 5.59621 6.0069C5.8805 4.5374 5.8805 2.7951 5.8805 1" stroke="black" stroke-width="2" stroke-linecap="round"/>
<path d="M22.0882 8.92239C21.5654 10.6399 20.504 14.5783 19.7159 18.5314C18.9172 22.5373 18.1277 41.0808 21.2803 51.7263C21.6144 52.8547 23.3873 52.8368 24.4487 52.9663C25.5101 53.0959 26.5557 52.8516 27.3557 52.2371C30.6428 49.7125 30.2627 44.7231 31.0627 40.7699C31.9021 36.6221 33.7004 32.8784 34.7579 28.9252C36.0518 24.0879 36.0767 18.0724 35.9539 12.3981C34.7777 10.4178 33.7083 8.68548 33.0509 6.7163C32.6548 5.7243 32.132 4.74713 31.5934 3" stroke="black" stroke-width="2" stroke-linecap="round"/>
</svg>
