<svg width="34" height="38" viewBox="0 0 34 38" fill="none" xmlns="http://www.w3.org/2000/svg">
<path d="M23.842 34.7384C20.6137 36.5059 11.7867 36.7356 7.7299 36.1709C5.70085 35.6381 5.05501 35.3051 4.5453 34.737C3.67304 33.3894 2.57435 31.027 1.1076 27.8732L1.10759 27.8731C0.524828 21.3366 2.3977 11.7953 3.52639 9.0609C4.6778 6.2715 5.56071 2.61105 8.46754 1.77609C9.90105 1.36433 12.0269 1.90839 14.3988 1.49691C18.309 0.818592 23.3649 0.502099 24.7449 2.82651C26.0938 5.09855 29.7267 5.60174 31.0899 8.6221C32.4519 11.6398 35.4093 30.945 28.2128 33.0121C26.7793 33.4239 25.3064 33.9367 23.842 34.7384Z" fill="white" stroke="black" stroke-width="2" stroke-linecap="round"/>
</svg>
