<svg width="59" height="59" viewBox="0 0 59 59" fill="none" xmlns="http://www.w3.org/2000/svg">
<path d="M46.3806 48.0146C47.1566 46.2444 49.3933 42.6183 50.5477 38.4375C51.8804 33.6111 53.8556 29.9657 54.3138 24.2092C54.5249 21.5571 53.6194 17.2969 52.8126 14.8381C51.7127 11.4861 47.7982 10.8906 43.5347 9.07638C41.3899 8.00461 39.5154 6.55632 37.9478 4.74207C37.1581 3.82812 36.3801 2.92781 34.5864 2.12449" stroke="black" stroke-width="2" stroke-linecap="round"/>
<path d="M32.7521 2.8014C30.8596 3.70358 27.231 6.8388 25.0273 10.8084C23.0563 14.3587 23.3814 19.072 23.2469 24.7981C23.2504 26.1532 23.046 27.1765 23.0022 28.1949C22.9584 29.2132 23.0814 30.1955 24.2004 31.0833" stroke="black" stroke-width="2" stroke-linecap="round"/>
<path d="M24.1707 15.5227C22.4005 14.7467 19.2653 11.1182 15.2752 8.75066C11.755 6.66201 7.40241 10.2254 3.49121 11.2242C2.50442 11.4762 1.57319 11.9633 1.3135 12.666C0.0229574 16.1583 4.31767 25.991 4.53579 33.0838C4.59791 35.1042 5.81636 37.9575 6.72134 41.2002C10.6055 44.0899 14.3223 46.9703 17.7157 51.2518C18.6697 52.1502 19.734 52.6821 21.9472 54.098" stroke="black" stroke-width="2" stroke-linecap="round"/>
<path d="M46.3806 48.0146C45.6046 49.7847 41.894 52.2651 35.5121 53.5733C31.1769 55.2903 27.3011 56.451 23.0193 55.8181C21.7962 55.4674 20.4044 54.9766 18.9705 54.4708" stroke="black" stroke-width="2" stroke-linecap="round"/>
<path d="M46.3806 48.0146C45.6046 49.7847 41.894 52.2651 35.5121 53.5733C31.1769 55.2903 27.3011 56.451 23.0193 55.8181C21.7962 55.4674 20.4044 54.9766 18.9705 54.4708" stroke="black" stroke-width="2" stroke-linecap="round"/>
</svg>
