<svg width="54" height="55" viewBox="0 0 54 55" fill="none" xmlns="http://www.w3.org/2000/svg">
<path d="M12.0959 6.44354C11.1059 8.10354 8.43586 11.4235 6.77086 15.4285C4.84878 20.0519 2.43586 23.4235 1.26586 29.0785C0.726839 31.6838 1.09586 36.0235 1.59086 38.5635C2.26566 42.0262 6.07586 43.1035 10.0809 45.4335C12.0759 46.7635 13.7559 48.4335 15.0859 50.4285C15.7559 51.4335 16.4159 52.4235 18.0959 53.4435" stroke="black" stroke-width="2" stroke-linecap="round"/>
<path d="M30.0958 41.4435C31.7558 42.4335 34.4158 46.4235 38.0808 49.2685C41.3142 51.7785 46.0758 48.7835 50.0808 48.2785C51.0913 48.1511 52.0758 47.7835 52.4208 47.1185C54.1353 43.8137 51.0958 33.5235 51.7608 26.4585C51.9502 24.4461 51.0958 21.4635 50.6008 18.1335C47.1058 14.7835 43.7758 11.4635 40.9408 6.79354C40.1058 5.78354 39.1158 5.12354 37.0958 3.44354" stroke="black" stroke-width="2" stroke-linecap="round"/>
<path d="M12.0958 6.44355C13.0858 4.78355 17.0758 2.78355 23.5708 2.27855C28.0858 1.11355 32.0758 0.443546 36.2458 1.60355C37.4158 2.10355 38.7358 2.76355 40.0958 3.44355" stroke="black" stroke-width="2" stroke-linecap="round"/>
<path d="M18.0001 51.998C20.0032 51.338 24.0195 48.678 26.7172 45.013C29.1299 41.7352 29.3948 37.018 30.2453 31.353C30.4114 30.008 30.7436 29.018 30.9147 28.013C31.0859 27.008 31.0859 26.018 30.0793 24.998" stroke="black" stroke-width="2" stroke-linecap="round"/>
</svg>
