<svg width="39" height="56" viewBox="0 0 39 56" fill="none" xmlns="http://www.w3.org/2000/svg">
<path d="M9.16722 3.72804C9.71749 3.68606 12.4771 3.47553 16.5481 3.74741C19.2245 3.92615 19.6826 9.65931 19.9573 15.0745C20.2455 20.7541 16.936 24.8801 16.0429 29.6608C15.1147 34.6289 13.2881 39.2784 12.9146 45.4843C12.7478 48.2564 11.6273 50.5951 10.8162 52.7132C10.4087 53.7771 9.13546 54.3152 8.27198 54.0987C4.12873 53.0598 3.73327 45.9377 1.72424 25.264C2.36287 17.2022 3.67422 12.4072 4.96214 7.30525C5.13383 5.81838 5.00129 4.08112 4.86475 2.29123" stroke="black" stroke-width="2" stroke-linecap="round"/>
<path d="M21.6281 8.95779C21.2375 10.7101 20.4788 14.7178 19.9936 18.7195C19.502 22.7745 20.1253 41.3243 24.0785 51.6992C24.4975 52.7989 26.2639 52.6461 27.3321 52.6946C28.4002 52.743 29.4242 52.4199 30.1752 51.7463C33.2607 48.979 32.5022 44.033 32.9992 40.0304C33.5207 35.8308 35.0289 31.9611 35.7826 27.9389C36.7049 23.0172 36.2721 17.0173 35.7181 11.3687C34.3946 9.4836 33.1966 7.83766 32.3912 5.92419C31.9209 4.9652 31.3253 4.03062 30.6553 2.32953" stroke="black" stroke-width="2" stroke-linecap="round"/>
</svg>
