<svg width="37" height="41" viewBox="0 0 37 41" fill="none" xmlns="http://www.w3.org/2000/svg">
<path d="M9.69345 4.18474C13.0322 1.97364 22.5786 0.831393 27.0267 1.02035C29.2742 1.3816 30.0044 1.67058 30.6083 2.22388C31.6759 3.57077 33.0809 5.97556 34.9565 9.18596C36.1807 16.0896 35.0157 26.4438 34.0402 29.4713C33.0451 32.5598 32.42 36.5488 29.3451 37.7338C27.8287 38.3182 25.4753 37.9548 22.9418 38.6344C18.7652 39.7546 13.314 40.6059 11.6076 38.2702C9.9396 35.9871 5.9565 35.8205 4.2052 32.7417C2.45544 29.6657 -2.4999 9.40193 5.11263 6.46815C6.62902 5.88375 8.17894 5.18773 9.69345 4.18474Z" fill="white" stroke="black" stroke-width="2" stroke-linecap="round"/>
</svg>
