<svg width="58" height="58" viewBox="0 0 58 58" fill="none" xmlns="http://www.w3.org/2000/svg">
<path d="M45.5651 47.8904C46.3796 46.1376 48.6949 42.5612 49.9402 38.4065C51.3779 33.6103 53.4321 30.0089 54.0158 24.2637C54.2847 21.6169 53.4724 17.3379 52.7195 14.8621C51.693 11.487 47.7924 10.8062 43.5695 8.89936C41.4485 7.78105 39.6061 6.29221 38.0784 4.44419C37.3089 3.51322 36.5508 2.59616 34.775 1.75389" stroke="black" stroke-width="2" stroke-linecap="round"/>
<path d="M32.9263 2.39059C31.0146 3.25126 27.3185 6.30657 25.0286 10.2272C22.9807 13.7336 23.2029 18.4529 22.9435 24.1747C22.9174 25.5295 22.6907 26.5481 22.6247 27.5653C22.5587 28.5824 22.6602 29.5672 23.7596 30.4792" stroke="black" stroke-width="2" stroke-linecap="round"/>
<path d="M24.0694 14.9217C22.3166 14.1072 19.2613 10.4111 15.3238 7.95713C11.85 5.79217 7.42069 9.25978 3.48863 10.173C2.49658 10.4034 1.55494 10.87 1.27998 11.5669C-0.086447 15.0302 3.99271 24.9543 4.05602 32.0502C4.07406 34.0714 5.22996 36.9506 6.06397 40.2123C9.88421 43.1861 13.5372 46.1469 16.8364 50.5014C17.7706 51.4204 18.8231 51.9754 21.0048 53.4393" stroke="black" stroke-width="2" stroke-linecap="round"/>
<path d="M45.5651 47.8904C44.7506 49.6432 40.9869 52.042 34.578 53.2106C30.2063 54.8327 26.3061 55.9085 22.0391 55.1824C20.824 54.8051 19.4432 54.284 18.0206 53.7471" stroke="black" stroke-width="2" stroke-linecap="round"/>
<path d="M45.5651 47.8904C44.7506 49.6432 40.9869 52.042 34.578 53.2106C30.2063 54.8327 26.3061 55.9085 22.0391 55.1824C20.824 54.8051 19.4432 54.284 18.0206 53.7471" stroke="black" stroke-width="2" stroke-linecap="round"/>
</svg>
