<svg width="41" height="49" viewBox="0 0 41 49" fill="none" xmlns="http://www.w3.org/2000/svg">
<path d="M9.17902 5.22042C9.72508 5.1406 12.4636 4.74032 16.5306 4.64089C19.2042 4.57553 19.9262 9.37223 20.4509 13.9157C21.0011 18.6809 17.8965 22.4268 17.2286 26.5295C16.5346 30.793 14.931 34.8605 14.8467 40.123C14.8091 42.4736 13.8017 44.5359 13.092 46.3872C12.7356 47.317 11.4925 47.8735 10.6225 47.7607C6.4481 47.2192 5.72409 41.2464 2.76492 23.9784C3.02721 17.1299 4.11089 12.9814 5.15702 8.57587C5.25907 7.30841 5.04655 5.85442 4.82759 4.35636" stroke="black" stroke-width="2" stroke-linecap="round"/>
<path d="M21.8312 8.6237C21.5234 10.1326 20.9536 13.5728 20.6559 16.9858C20.3543 20.4443 21.835 36.0336 26.2529 44.4615C26.7212 45.3548 28.4732 45.0835 29.5393 45.0381C30.6054 44.9927 31.6101 44.6376 32.3268 44.0091C35.2714 41.4268 34.2867 37.318 34.5961 33.9033C34.9208 30.3205 36.2434 26.9361 36.8076 23.4841C37.4979 19.2602 36.7888 14.2365 35.9751 9.51888C34.5697 8.03639 33.3003 6.7454 32.4096 5.19715C31.8967 4.42658 31.2602 3.68672 30.5141 2.30659" stroke="black" stroke-width="2" stroke-linecap="round"/>
</svg>
