<svg width="40" height="41" viewBox="0 0 40 41" fill="none" xmlns="http://www.w3.org/2000/svg">
<path d="M27.6445 37.8299C23.8791 39.7595 13.5836 40.0102 8.85199 39.3938C6.4854 38.8121 5.73211 38.4486 5.13762 37.8284C4.12024 36.3572 2.83878 33.7781 1.12803 30.3351L1.12802 30.3351C0.44831 23.1992 2.63275 12.7829 3.94921 9.79775C5.29215 6.75255 6.32195 2.75643 9.71235 1.84491C11.3843 1.39539 13.8638 1.98934 16.6303 1.54014C21.191 0.799606 27.088 0.45409 28.6976 2.99165C30.2709 5.47205 34.5081 6.02138 36.0981 9.31871C37.6867 12.6132 41.136 33.6886 32.7424 35.9453C31.0704 36.3948 29.3525 36.9546 27.6445 37.8299Z" fill="white" stroke="black" stroke-width="2" stroke-linecap="round"/>
</svg>
