<svg width="44" height="59" viewBox="0 0 44 59" fill="none" xmlns="http://www.w3.org/2000/svg">
<path fill-rule="evenodd" clip-rule="evenodd" d="M15.8119 0.43905C16.6437 -0.121529 17.6064 -0.0617287 18.2884 0.158777C21.0189 1.04179 22.6 3.15412 23.764 5.37557C24.3452 6.48491 24.8479 7.67349 25.3324 8.78768C25.8207 9.91066 26.2933 10.966 26.8373 11.9049L29.3177 15.6265C31.8205 11.476 35.3973 8.29549 38.1351 5.72128C38.669 5.2193 39.2179 4.83171 39.7826 4.64022C40.3847 4.43611 41.0202 4.45621 41.5863 4.80135C42.1066 5.11883 42.4385 5.63331 42.6585 6.14706C42.8832 6.67176 43.0357 7.29915 43.141 7.97909C43.5568 10.6663 43.325 14.9082 42.8324 19.3971C41.8554 28.2978 39.7909 38.6496 39.1605 41.2242C39.0125 44.843 39.2883 47.925 39.7152 50.1197L39.8031 50.5504L39.8119 50.5914L39.8177 50.6334C39.9974 52.0445 39.9955 53.7657 39.9955 55.4449C39.9955 55.9972 39.5477 56.4449 38.9955 56.4449C38.4433 56.4447 37.9955 55.9971 37.9955 55.4449C37.9955 53.7364 37.9923 52.1669 37.8353 50.9127C37.3222 48.4964 36.9946 45.0628 37.1664 41.0474L37.1703 40.9459L37.1957 40.8473C37.7695 38.5589 39.8626 28.1213 40.8441 19.1783C41.3378 14.6797 41.5352 10.6802 41.1644 8.28475C41.073 7.69449 40.9538 7.2475 40.8197 6.93417C40.6813 6.61115 40.5669 6.52173 40.5453 6.50839C40.5351 6.50812 40.4968 6.50914 40.4242 6.53378C40.2438 6.59505 39.9398 6.76967 39.5052 7.17831C36.6255 9.88599 33.1816 12.9557 30.8499 16.9635C30.7494 17.1362 30.6528 17.3103 30.556 17.483L30.8275 17.8902C31.1338 18.3497 31.0096 18.9706 30.5501 19.2769C30.2494 19.4774 29.8801 19.4928 29.5746 19.3512C28.0479 22.4602 27.0042 25.5799 25.9388 28.776C24.6255 32.7158 23.9956 36.5954 23.9955 38.4449C23.9955 38.9972 23.5477 39.4449 22.9955 39.4449C22.9521 39.4449 22.9095 39.4415 22.8675 39.4361C25.8145 42.7759 26.993 47.2584 27.1566 51.4928L27.1878 51.8092C27.2657 52.5154 27.3818 52.9949 27.6419 53.4762C27.9511 54.048 28.5099 54.7059 29.6488 55.689C30.0668 56.0499 30.1132 56.6811 29.7523 57.0992C29.3913 57.5169 28.7601 57.5635 28.3421 57.2027C27.1413 56.1661 26.3643 55.3191 25.8822 54.4273C25.3883 53.5137 25.2505 52.6377 25.1644 51.6695L25.1624 51.6432L25.1615 51.6178C25.0018 47.2672 23.7063 42.9138 20.6312 39.9908L20.4369 39.8053L20.3607 39.5474C19.7032 37.3044 18.8933 34.921 18.1224 32.5289C17.3576 30.1558 16.6349 27.7838 16.182 25.6373C15.9494 24.5349 15.6922 23.3655 15.3636 22.2193C15.1393 22.0359 14.9955 21.7572 14.9955 21.4449C14.9954 21.3094 14.9914 21.1659 14.9857 21.0113C14.8024 20.4832 14.5988 19.9676 14.3685 19.4742C13.4818 17.575 12.2709 16.1452 10.4945 15.5543C9.27115 15.1473 8.26322 14.8668 7.49057 14.689C6.89501 14.552 6.47137 14.4832 6.20737 14.4576L5.99546 14.4459L5.25131 14.4508C4.54039 14.4661 3.92014 14.5236 3.30112 14.733C2.87622 14.8768 2.49975 15.0755 2.25229 15.2838C2.16716 15.3555 2.10973 15.4203 2.07065 15.4723C3.19272 17.4332 4.0151 19.7914 4.79917 22.1002C5.64759 24.5985 6.45616 27.0543 7.55698 29.1627C8.57952 31.1211 9.46133 33.1751 10.3275 35.1744C11.1993 37.1867 12.0566 39.147 13.0501 40.9849C14.2204 43.1499 14.9452 46.3008 15.3841 49.3228C15.8271 52.3729 15.9955 55.4162 15.9955 57.4459C15.9953 57.998 15.5476 58.4459 14.9955 58.4459C14.4434 58.4457 13.9956 57.9979 13.9955 57.4459C13.9955 55.5057 13.8338 52.5584 13.4056 49.6099C12.9733 46.6335 12.285 43.7761 11.2904 41.9361C10.2496 40.0107 9.35966 37.9731 8.49155 35.9693C7.61769 33.9522 6.76686 31.9699 5.78452 30.0885C4.59639 27.8129 3.73604 25.1891 2.90561 22.7437C2.06018 20.2542 1.24672 17.9556 0.145846 16.1451L0.00522082 15.9146L0.00033801 15.6441C-0.0147811 14.7975 0.479893 14.1613 0.964205 13.7535C1.45906 13.337 2.08066 13.0347 2.66049 12.8385C3.84481 12.4379 4.99777 12.4459 5.99546 12.4459L6.17417 12.4508C6.61417 12.4733 7.21798 12.574 7.93881 12.7398C8.78474 12.9345 9.85502 13.2339 11.1263 13.6568C12.6274 14.1562 13.7806 15.0691 14.682 16.1832C14.537 13.4198 14.4136 9.42602 14.4906 3.47714C14.5088 2.07934 14.947 1.0222 15.8119 0.43905ZM17.6732 2.0621C17.3508 1.9579 17.084 1.99379 16.93 2.09725C16.8091 2.17882 16.5039 2.47601 16.4906 3.5035C16.4134 9.4695 16.5395 13.4388 16.6839 16.1588C16.7922 18.1987 16.9176 19.6225 16.9701 20.6363C17.4956 22.2169 17.8459 23.8351 18.139 25.2242C18.5686 27.2604 19.2634 29.5471 20.0267 31.9156C20.6839 33.955 21.3898 36.0663 22.0023 38.0767C22.0738 35.8642 22.7594 31.9901 24.0414 28.1441C25.1965 24.6786 26.3733 21.1463 28.224 17.5904L25.1537 12.9849L25.1371 12.9596L25.1214 12.9332C24.5061 11.8754 23.9886 10.712 23.4984 9.58456C23.0004 8.43937 22.5307 7.33341 21.9915 6.30428C20.9145 4.24874 19.6576 2.70395 17.6732 2.0621Z" fill="black"/>
</svg>
