<svg width="48" height="60" viewBox="0 0 48 60" fill="none" xmlns="http://www.w3.org/2000/svg">
<path d="M8.97067 8.34167C9.49138 8.20225 12.1028 7.50303 16.0528 7.00343C18.6496 6.67498 20.0498 11.8264 21.2209 16.7211C22.4491 21.8548 19.9666 26.2306 19.9112 30.7605C19.8537 35.4678 18.8811 40.0493 19.5629 45.7853C19.8675 48.3474 19.1849 50.689 18.7619 52.7723C18.5495 53.8186 17.4185 54.5439 16.5541 54.5048C12.4062 54.3172 10.8333 47.886 5.44166 29.3757C4.70302 21.8963 5.15707 17.2767 5.53721 12.3809C5.45267 10.9916 5.03441 9.42943 4.60346 7.81998" stroke="black" stroke-width="2" stroke-linecap="round"/>
<path d="M21.6276 11.4631C21.5371 13.2653 21.4702 17.3604 21.6865 21.3949C21.9058 25.4832 25.8944 43.6119 31.8723 53.0318C32.5059 54.0303 34.3145 53.5274 35.4336 53.3619C36.5527 53.1964 37.5589 52.674 38.2183 51.8614C40.9273 48.5225 39.2481 43.807 39.0439 39.7692C38.8296 35.5327 39.7006 31.4238 39.7597 27.3156C39.832 22.2885 38.3016 16.4709 36.7084 11.0233C34.9931 9.43251 33.4513 8.052 32.2696 6.32987C31.6079 5.48009 30.8205 4.67934 29.8177 3.13917" stroke="black" stroke-width="2" stroke-linecap="round"/>
</svg>
