<svg width="27" height="50" viewBox="0 0 27 50" fill="none" xmlns="http://www.w3.org/2000/svg">
<path d="M1 49.0008C1 43.9587 1.43154 33.7727 1.76173 29.5336C2.17833 24.1852 3.39308 19.5407 4.15808 15.4694C4.90799 11.4783 6.00846 7.34189 6.88135 3.27054C7.10038 2.24889 7.31615 1.24249 7.75096 1.0595C8.83853 0.601816 10.1473 2.90966 11.1281 4.93263C13.6654 10.1662 12.7692 15.4338 13.4198 19.5051C14.0853 23.6701 15.1623 27.6326 15.9273 31.7039C16.47 35.7753 17.5619 38.825 17.8888 41.0208C18 42.2102 18 43.552 18 43.918" stroke="black" stroke-width="2" stroke-linecap="round"/>
<path d="M13 20.0008C13.66 18.0108 16.98 14.0208 19.825 10.0158C20.4764 9.0989 20.66 8.02084 21.325 7.34584C21.99 6.67084 22.98 6.34084 23.82 6.66584C25.6804 7.38564 26 11.6408 25.835 16.1358C25.6487 21.2124 22.34 24.9808 21.835 30.6458C21 35.3208 20.67 38.9908 20.005 40.9858C19.67 41.9908 19.34 42.9808 19 45.0008" stroke="black" stroke-width="2" stroke-linecap="round"/>
</svg>
