<svg width="44" height="59" viewBox="0 0 44 59" fill="none" xmlns="http://www.w3.org/2000/svg">
<path d="M14.9952 57.4452C14.9952 53.4752 14.3352 45.4652 12.1702 41.4602C10.1356 37.6965 8.67517 33.4652 6.67017 29.6252C4.38103 25.2411 3.33517 19.4652 1.00017 15.6252C0.985168 14.7852 1.97517 14.1252 2.98017 13.7852C3.98517 13.4452 4.97517 13.4452 5.99517 13.4452" stroke="black" stroke-width="2" stroke-linecap="round"/>
<path d="M5.99518 13.4452C6.65518 13.4452 8.31518 13.7752 10.8102 14.6052C15.0921 16.0297 16.3152 21.4252 17.1602 25.4302C18.0427 29.6131 19.9952 34.7452 21.3202 39.2652C24.6552 42.4352 25.9952 47.0852 26.1602 51.5802C26.3252 53.4352 26.6552 54.4252 28.9952 56.4452" stroke="black" stroke-width="2" stroke-linecap="round"/>
<path d="M22.9952 38.4452C22.9952 36.4552 23.6552 32.4652 24.9902 28.4602C26.3252 24.4552 27.6552 20.4652 29.9852 16.4602C32.4057 12.2997 35.9752 9.12524 38.8202 6.45024C46.5719 -0.838273 39.3352 36.4252 38.1652 41.0902C37.9952 45.0652 38.3252 48.4352 38.8252 50.7602C38.9952 52.0952 38.9952 53.7452 38.9952 55.4452" stroke="black" stroke-width="2" stroke-linecap="round"/>
<path d="M15.9952 21.4452C15.9952 19.4552 15.3352 15.4652 15.4902 3.49023C15.5216 1.0644 16.9752 0.785235 17.9802 1.11023C22.6957 2.63515 23.6552 8.42523 25.9852 12.4302C26.6552 13.4352 27.3152 14.4252 27.9852 15.4302C28.6552 16.4352 29.3152 17.4252 29.9952 18.4452" stroke="black" stroke-width="2" stroke-linecap="round"/>
<path d="M14.9952 57.4452C14.9952 53.4752 14.3352 45.4652 12.1702 41.4602C10.1356 37.6965 8.67517 33.4652 6.67017 29.6252C4.38103 25.2411 3.33517 19.4652 1.00017 15.6252C0.985168 14.7852 1.97517 14.1252 2.98017 13.7852C3.98517 13.4452 4.97517 13.4452 5.99517 13.4452" stroke="black" stroke-width="2" stroke-linecap="round"/>
<path d="M5.99518 13.4452C6.65518 13.4452 8.31518 13.7752 10.8102 14.6052C15.0921 16.0297 16.3152 21.4252 17.1602 25.4302C18.0427 29.6131 19.9952 34.7452 21.3202 39.2652C24.6552 42.4352 25.9952 47.0852 26.1602 51.5802C26.3252 53.4352 26.6552 54.4252 28.9952 56.4452" stroke="black" stroke-width="2" stroke-linecap="round"/>
<path d="M22.9952 38.4452C22.9952 36.4552 23.6552 32.4652 24.9902 28.4602C26.3252 24.4552 27.6552 20.4652 29.9852 16.4602C32.4057 12.2997 35.9752 9.12524 38.8202 6.45024C46.5719 -0.838273 39.3352 36.4252 38.1652 41.0902C37.9952 45.0652 38.3252 48.4352 38.8252 50.7602C38.9952 52.0952 38.9952 53.7452 38.9952 55.4452" stroke="black" stroke-width="2" stroke-linecap="round"/>
<path d="M15.9952 21.4452C15.9952 19.4552 15.3352 15.4652 15.4902 3.49023C15.5216 1.0644 16.9752 0.785235 17.9802 1.11023C22.6957 2.63515 23.6552 8.42523 25.9852 12.4302C26.6552 13.4352 27.3152 14.4252 27.9852 15.4302C28.6552 16.4352 29.3152 17.4252 29.9952 18.4452" stroke="black" stroke-width="2" stroke-linecap="round"/>
</svg>
