<svg width="32" height="41" viewBox="0 0 32 41" fill="none" xmlns="http://www.w3.org/2000/svg">
<path d="M21.9981 37.838C19.0296 39.7676 10.9127 40.0182 7.18233 39.4018C5.31654 38.8201 4.72265 38.4566 4.25396 37.8365C3.45187 36.3652 2.44157 33.7861 1.09283 30.3431C0.556957 23.2072 2.27915 12.7909 3.31703 9.80577C4.37579 6.76058 5.18767 2.76446 7.86063 1.85293C9.17881 1.40341 11.1336 1.99736 13.3147 1.54816C16.9103 0.807631 21.5594 0.462117 22.8284 2.99968C24.0688 5.48007 27.4093 6.0294 28.6629 9.32674C29.9153 12.6212 32.6347 33.6967 26.0173 35.9533C24.6991 36.4029 23.3447 36.9627 21.9981 37.838Z" fill="#D9D9D9" stroke="black" stroke-width="2" stroke-linecap="round"/>
</svg>
